<?xml version="1.0" encoding="utf-8" standalone="no"?>
<!DOCTYPE svg PUBLIC "-//W3C//DTD SVG 1.1//EN"
  "http://www.w3.org/Graphics/SVG/1.1/DTD/svg11.dtd">
<!-- Created with matplotlib (https://matplotlib.org/) -->
<svg height="331.674375pt" version="1.1" viewBox="0 0 875.792131 331.674375" width="875.792131pt" xmlns="http://www.w3.org/2000/svg" xmlns:xlink="http://www.w3.org/1999/xlink">
 <metadata>
  <rdf:RDF xmlns:cc="http://creativecommons.org/ns#" xmlns:dc="http://purl.org/dc/elements/1.1/" xmlns:rdf="http://www.w3.org/1999/02/22-rdf-syntax-ns#">
   <cc:Work>
    <dc:type rdf:resource="http://purl.org/dc/dcmitype/StillImage"/>
    <dc:date>2021-04-28T13:42:25.611759</dc:date>
    <dc:format>image/svg+xml</dc:format>
    <dc:creator>
     <cc:Agent>
      <dc:title>Matplotlib v3.3.4, https://matplotlib.org/</dc:title>
     </cc:Agent>
    </dc:creator>
   </cc:Work>
  </rdf:RDF>
 </metadata>
 <defs>
  <style type="text/css">*{stroke-linecap:butt;stroke-linejoin:round;}</style>
 </defs>
 <g id="figure_1">
  <g id="patch_1">
   <path d="M 0 331.674375 
L 875.792131 331.674375 
L 875.792131 0 
L 0 0 
z
" style="fill:none;"/>
  </g>
  <g id="axes_1">
   <g id="patch_2">
    <path d="M 48.982813 294.118125 
L 353.346449 294.118125 
L 353.346449 22.318125 
L 48.982813 22.318125 
z
" style="fill:#ffffff;"/>
   </g>
   <g id="PathCollection_1">
    <path clip-path="url(#p0579b43ffe)" d="M 309.865929 220.101103 
L 312.770664 214.176949 
L 312.820806 198.188713 
L 309.865929 182.310451 
L 300.215654 198.188713 
L 301.911142 214.176949 
z
" style="fill:#481668;"/>
   </g>
   <g id="PathCollection_2">
    <path clip-path="url(#p0579b43ffe)" d="M 266.38541 251.10625 
L 309.865929 256.492737 
L 335.941827 246.153419 
L 348.410904 230.165184 
L 345.787178 214.176949 
L 338.292611 198.188713 
L 330.640454 182.200478 
L 324.932771 166.212243 
L 321.766347 150.224007 
L 320.780776 134.235772 
L 320.901249 118.247537 
L 320.056799 102.259301 
L 314.309852 86.271066 
L 309.865929 81.370621 
L 298.516527 86.271066 
L 277.249283 102.259301 
L 266.38541 115.773025 
L 266.02173 118.247537 
L 264.695609 134.235772 
L 263.495658 150.224007 
L 261.646218 166.212243 
L 259.067244 182.200478 
L 256.236189 198.188713 
L 253.994319 214.176949 
L 254.006988 230.165184 
L 260.681772 246.153419 
z
M 301.911142 214.176949 
L 300.215654 198.188713 
L 309.865929 182.310451 
L 312.820806 198.188713 
L 312.770664 214.176949 
L 309.865929 220.101103 
z
" style="fill:#443983;"/>
   </g>
   <g id="PathCollection_3">
    <path clip-path="url(#p0579b43ffe)" d="M 266.38541 281.388244 
L 309.865929 282.709852 
L 338.851652 278.12989 
L 353.346449 275.408785 
L 353.346449 262.141654 
L 353.346449 246.153419 
L 353.346449 230.165184 
L 353.346449 214.176949 
L 353.346449 198.188713 
L 353.346449 185.138912 
L 351.431684 182.200478 
L 343.090642 166.212243 
L 339.076202 150.224007 
L 339.01762 134.235772 
L 342.008376 118.247537 
L 346.481594 102.259301 
L 349.823292 86.271066 
L 346.740006 70.282831 
L 323.800779 54.294596 
L 309.865929 49.811712 
L 272.961807 54.294596 
L 266.38541 55.59367 
L 256.651089 70.282831 
L 252.712821 86.271066 
L 251.065369 102.259301 
L 250.559958 118.247537 
L 250.4471 134.235772 
L 249.697619 150.224007 
L 247.543148 166.212243 
L 243.904237 182.200478 
L 239.130587 198.188713 
L 233.583787 214.176949 
L 227.760194 230.165184 
L 223.251963 246.153419 
L 225.627304 262.141654 
L 253.886429 278.12989 
z
M 260.681772 246.153419 
L 254.006988 230.165184 
L 253.994319 214.176949 
L 256.236189 198.188713 
L 259.067244 182.200478 
L 261.646218 166.212243 
L 263.495658 150.224007 
L 264.695609 134.235772 
L 266.02173 118.247537 
L 266.38541 115.773025 
L 277.249283 102.259301 
L 298.516527 86.271066 
L 309.865929 81.370621 
L 314.309852 86.271066 
L 320.056799 102.259301 
L 320.901249 118.247537 
L 320.780776 134.235772 
L 321.766347 150.224007 
L 324.932771 166.212243 
L 330.640454 182.200478 
L 338.292611 198.188713 
L 345.787178 214.176949 
L 348.410904 230.165184 
L 335.941827 246.153419 
L 309.865929 256.492737 
L 266.38541 251.10625 
z
" style="fill:#375a8c;"/>
   </g>
   <g id="PathCollection_4">
    <path clip-path="url(#p0579b43ffe)" d="M 92.463332 294.118125 
L 135.943851 294.118125 
L 179.424371 294.118125 
L 222.90489 294.118125 
L 266.38541 294.118125 
L 309.865929 294.118125 
L 353.346449 294.118125 
L 353.346449 278.12989 
L 353.346449 275.408785 
L 338.851652 278.12989 
L 309.865929 282.709852 
L 266.38541 281.388244 
L 253.886429 278.12989 
L 225.627304 262.141654 
L 223.251963 246.153419 
L 227.760194 230.165184 
L 233.583787 214.176949 
L 239.130587 198.188713 
L 243.904237 182.200478 
L 247.543148 166.212243 
L 249.697619 150.224007 
L 250.4471 134.235772 
L 250.559958 118.247537 
L 251.065369 102.259301 
L 252.712821 86.271066 
L 256.651089 70.282831 
L 266.38541 55.59367 
L 272.961807 54.294596 
L 309.865929 49.811712 
L 323.800779 54.294596 
L 346.740006 70.282831 
L 349.823292 86.271066 
L 346.481594 102.259301 
L 342.008376 118.247537 
L 339.01762 134.235772 
L 339.076202 150.224007 
L 343.090642 166.212243 
L 351.431684 182.200478 
L 353.346449 185.138912 
L 353.346449 182.200478 
L 353.346449 166.212243 
L 353.346449 150.224007 
L 353.346449 134.235772 
L 353.346449 118.247537 
L 353.346449 102.259301 
L 353.346449 86.271066 
L 353.346449 70.282831 
L 353.346449 54.294596 
L 353.346449 38.30636 
L 353.346449 30.269046 
L 309.865929 23.34369 
L 266.38541 24.232157 
L 232.083679 38.30636 
L 226.546447 54.294596 
L 228.898591 70.282831 
L 231.539183 86.271066 
L 233.487379 102.259301 
L 235.098186 118.247537 
L 236.19859 134.235772 
L 235.899581 150.224007 
L 233.440078 166.212243 
L 228.741231 182.200478 
L 222.90489 196.303904 
L 215.937759 198.188713 
L 182.705656 214.176949 
L 179.424371 218.130624 
L 173.7094 230.165184 
L 167.315995 246.153419 
L 158.210089 262.141654 
L 135.943851 274.012585 
L 92.463332 269.75452 
L 83.956981 262.141654 
L 73.873469 246.153419 
L 64.081373 230.165184 
L 53.465005 214.176949 
L 48.982813 208.129573 
L 48.982813 214.176949 
L 48.982813 230.165184 
L 48.982813 246.153419 
L 48.982813 262.141654 
L 48.982813 278.12989 
L 48.982813 294.118125 
z
" style="fill:#2b758e;"/>
   </g>
   <g id="PathCollection_5">
    <path clip-path="url(#p0579b43ffe)" d="M 92.463332 269.75452 
L 135.943851 274.012585 
L 158.210089 262.141654 
L 167.315995 246.153419 
L 173.7094 230.165184 
L 179.424371 218.130624 
L 182.705656 214.176949 
L 215.937759 198.188713 
L 222.90489 196.303904 
L 228.741231 182.200478 
L 233.440078 166.212243 
L 235.899581 150.224007 
L 236.19859 134.235772 
L 235.098186 118.247537 
L 233.487379 102.259301 
L 231.539183 86.271066 
L 228.898591 70.282831 
L 226.546447 54.294596 
L 232.083679 38.30636 
L 266.38541 24.232157 
L 309.865929 23.34369 
L 353.346449 30.269046 
L 353.346449 22.318125 
L 309.865929 22.318125 
L 266.38541 22.318125 
L 222.90489 22.318125 
L 179.424371 22.318125 
L 135.943851 22.318125 
L 92.463332 22.318125 
L 48.982813 22.318125 
L 48.982813 38.30636 
L 48.982813 54.294596 
L 48.982813 70.282831 
L 48.982813 86.271066 
L 48.982813 102.259301 
L 48.982813 106.388405 
L 51.238892 102.259301 
L 59.957165 86.271066 
L 69.634586 70.282831 
L 79.528111 54.294596 
L 89.123474 38.30636 
L 92.463332 34.26941 
L 135.943851 27.01265 
L 154.858972 38.30636 
L 164.603261 54.294596 
L 172.070451 70.282831 
L 178.028948 86.271066 
L 179.424371 91.915364 
L 184.97027 102.259301 
L 194.397894 118.247537 
L 205.816011 134.235772 
L 183.861663 150.224007 
L 179.424371 150.761545 
L 174.023912 166.212243 
L 165.161701 182.200478 
L 153.414219 198.188713 
L 139.898341 214.176949 
L 135.943851 219.08351 
L 92.715064 230.165184 
L 92.463332 230.205713 
L 92.427485 230.165184 
L 76.877608 214.176949 
L 63.046685 198.188713 
L 50.466135 182.200478 
L 48.982813 180.039936 
L 48.982813 182.200478 
L 48.982813 198.188713 
L 48.982813 208.129573 
L 53.465005 214.176949 
L 64.081373 230.165184 
L 73.873469 246.153419 
L 83.956981 262.141654 
z
" style="fill:#21908d;"/>
   </g>
   <g id="PathCollection_6">
    <path clip-path="url(#p0579b43ffe)" d="M 92.463332 230.205713 
L 92.715064 230.165184 
L 135.943851 219.08351 
L 139.898341 214.176949 
L 153.414219 198.188713 
L 165.161701 182.200478 
L 174.023912 166.212243 
L 179.424371 150.761545 
L 183.861663 150.224007 
L 205.816011 134.235772 
L 194.397894 118.247537 
L 184.97027 102.259301 
L 179.424371 91.915364 
L 178.028948 86.271066 
L 172.070451 70.282831 
L 164.603261 54.294596 
L 154.858972 38.30636 
L 135.943851 27.01265 
L 92.463332 34.26941 
L 89.123474 38.30636 
L 79.528111 54.294596 
L 69.634586 70.282831 
L 59.957165 86.271066 
L 51.238892 102.259301 
L 48.982813 106.388405 
L 48.982813 118.247537 
L 48.982813 134.235772 
L 48.982813 150.224007 
L 48.982813 166.212243 
L 48.982813 180.039936 
L 50.466135 182.200478 
L 63.046685 198.188713 
L 76.877608 214.176949 
L 92.427485 230.165184 
z
M 83.568922 198.188713 
L 69.671846 182.200478 
L 58.629303 166.212243 
L 52.91495 150.224007 
L 54.923833 134.235772 
L 62.296714 118.247537 
L 72.078406 102.259301 
L 84.256106 86.271066 
L 92.463332 77.026415 
L 131.082786 86.271066 
L 135.943851 88.391416 
L 145.854808 102.259301 
L 152.54573 118.247537 
L 154.733424 134.235772 
L 152.543719 150.224007 
L 145.629533 166.212243 
L 135.943851 179.580269 
L 133.624777 182.200478 
L 112.451202 198.188713 
L 92.463332 207.214776 
z
" style="fill:#25ab82;"/>
   </g>
   <g id="PathCollection_7">
    <path clip-path="url(#p0579b43ffe)" d="M 92.463332 207.214776 
L 112.451202 198.188713 
L 133.624777 182.200478 
L 135.943851 179.580269 
L 145.629533 166.212243 
L 152.543719 150.224007 
L 154.733424 134.235772 
L 152.54573 118.247537 
L 145.854808 102.259301 
L 135.943851 88.391416 
L 131.082786 86.271066 
L 92.463332 77.026415 
L 84.256106 86.271066 
L 72.078406 102.259301 
L 62.296714 118.247537 
L 54.923833 134.235772 
L 52.91495 150.224007 
L 58.629303 166.212243 
L 69.671846 182.200478 
L 83.568922 198.188713 
z
M 88.877557 182.200478 
L 77.704896 166.212243 
L 72.189382 150.224007 
L 74.065345 134.235772 
L 81.61829 118.247537 
L 92.463332 102.857416 
L 116.574128 118.247537 
L 125.140544 134.235772 
L 124.259199 150.224007 
L 115.945677 166.212243 
L 98.939245 182.200478 
L 92.463332 186.163123 
z
" style="fill:#4ec36b;"/>
   </g>
   <g id="PathCollection_8">
    <path clip-path="url(#p0579b43ffe)" d="M 92.463332 186.163123 
L 98.939245 182.200478 
L 115.945677 166.212243 
L 124.259199 150.224007 
L 125.140544 134.235772 
L 116.574128 118.247537 
L 92.463332 102.857416 
L 81.61829 118.247537 
L 74.065345 134.235772 
L 72.189382 150.224007 
L 77.704896 166.212243 
L 88.877557 182.200478 
z
M 91.463814 150.224007 
L 92.463332 141.082906 
L 94.030887 150.224007 
L 92.463332 153.204516 
z
" style="fill:#90d743;"/>
   </g>
   <g id="PathCollection_9">
    <path clip-path="url(#p0579b43ffe)" d="M 92.463332 153.204516 
L 94.030887 150.224007 
L 92.463332 141.082906 
L 91.463814 150.224007 
z
" style="fill:#dae319;"/>
   </g>
   <g id="matplotlib.axis_1">
    <g id="xtick_1">
     <g id="line2d_1">
      <defs>
       <path d="M 0 0 
L 0 3.5 
" id="m2b05e97825" style="stroke:#000000;stroke-width:0.8;"/>
      </defs>
      <g>
       <use style="stroke:#000000;stroke-width:0.8;" x="48.982813" xlink:href="#m2b05e97825" y="294.118125"/>
      </g>
     </g>
     <g id="text_1">
      <!-- 0.0 -->
      <g transform="translate(41.03125 308.716563)scale(0.1 -0.1)">
       <defs>
        <path d="M 31.78125 66.40625 
Q 24.171875 66.40625 20.328125 58.90625 
Q 16.5 51.421875 16.5 36.375 
Q 16.5 21.390625 20.328125 13.890625 
Q 24.171875 6.390625 31.78125 6.390625 
Q 39.453125 6.390625 43.28125 13.890625 
Q 47.125 21.390625 47.125 36.375 
Q 47.125 51.421875 43.28125 58.90625 
Q 39.453125 66.40625 31.78125 66.40625 
z
M 31.78125 74.21875 
Q 44.046875 74.21875 50.515625 64.515625 
Q 56.984375 54.828125 56.984375 36.375 
Q 56.984375 17.96875 50.515625 8.265625 
Q 44.046875 -1.421875 31.78125 -1.421875 
Q 19.53125 -1.421875 13.0625 8.265625 
Q 6.59375 17.96875 6.59375 36.375 
Q 6.59375 54.828125 13.0625 64.515625 
Q 19.53125 74.21875 31.78125 74.21875 
z
" id="DejaVuSans-48"/>
        <path d="M 10.6875 12.40625 
L 21 12.40625 
L 21 0 
L 10.6875 0 
z
" id="DejaVuSans-46"/>
       </defs>
       <use xlink:href="#DejaVuSans-48"/>
       <use x="63.623047" xlink:href="#DejaVuSans-46"/>
       <use x="95.410156" xlink:href="#DejaVuSans-48"/>
      </g>
     </g>
    </g>
    <g id="xtick_2">
     <g id="line2d_2">
      <g>
       <use style="stroke:#000000;stroke-width:0.8;" x="85.216579" xlink:href="#m2b05e97825" y="294.118125"/>
      </g>
     </g>
     <g id="text_2">
      <!-- 2.5 -->
      <g transform="translate(77.265016 308.716563)scale(0.1 -0.1)">
       <defs>
        <path d="M 19.1875 8.296875 
L 53.609375 8.296875 
L 53.609375 0 
L 7.328125 0 
L 7.328125 8.296875 
Q 12.9375 14.109375 22.625 23.890625 
Q 32.328125 33.6875 34.8125 36.53125 
Q 39.546875 41.84375 41.421875 45.53125 
Q 43.3125 49.21875 43.3125 52.78125 
Q 43.3125 58.59375 39.234375 62.25 
Q 35.15625 65.921875 28.609375 65.921875 
Q 23.96875 65.921875 18.8125 64.3125 
Q 13.671875 62.703125 7.8125 59.421875 
L 7.8125 69.390625 
Q 13.765625 71.78125 18.9375 73 
Q 24.125 74.21875 28.421875 74.21875 
Q 39.75 74.21875 46.484375 68.546875 
Q 53.21875 62.890625 53.21875 53.421875 
Q 53.21875 48.921875 51.53125 44.890625 
Q 49.859375 40.875 45.40625 35.40625 
Q 44.1875 33.984375 37.640625 27.21875 
Q 31.109375 20.453125 19.1875 8.296875 
z
" id="DejaVuSans-50"/>
        <path d="M 10.796875 72.90625 
L 49.515625 72.90625 
L 49.515625 64.59375 
L 19.828125 64.59375 
L 19.828125 46.734375 
Q 21.96875 47.46875 24.109375 47.828125 
Q 26.265625 48.1875 28.421875 48.1875 
Q 40.625 48.1875 47.75 41.5 
Q 54.890625 34.8125 54.890625 23.390625 
Q 54.890625 11.625 47.5625 5.09375 
Q 40.234375 -1.421875 26.90625 -1.421875 
Q 22.3125 -1.421875 17.546875 -0.640625 
Q 12.796875 0.140625 7.71875 1.703125 
L 7.71875 11.625 
Q 12.109375 9.234375 16.796875 8.0625 
Q 21.484375 6.890625 26.703125 6.890625 
Q 35.15625 6.890625 40.078125 11.328125 
Q 45.015625 15.765625 45.015625 23.390625 
Q 45.015625 31 40.078125 35.4375 
Q 35.15625 39.890625 26.703125 39.890625 
Q 22.75 39.890625 18.8125 39.015625 
Q 14.890625 38.140625 10.796875 36.28125 
z
" id="DejaVuSans-53"/>
       </defs>
       <use xlink:href="#DejaVuSans-50"/>
       <use x="63.623047" xlink:href="#DejaVuSans-46"/>
       <use x="95.410156" xlink:href="#DejaVuSans-53"/>
      </g>
     </g>
    </g>
    <g id="xtick_3">
     <g id="line2d_3">
      <g>
       <use style="stroke:#000000;stroke-width:0.8;" x="121.450345" xlink:href="#m2b05e97825" y="294.118125"/>
      </g>
     </g>
     <g id="text_3">
      <!-- 5.0 -->
      <g transform="translate(113.498782 308.716563)scale(0.1 -0.1)">
       <use xlink:href="#DejaVuSans-53"/>
       <use x="63.623047" xlink:href="#DejaVuSans-46"/>
       <use x="95.410156" xlink:href="#DejaVuSans-48"/>
      </g>
     </g>
    </g>
    <g id="xtick_4">
     <g id="line2d_4">
      <g>
       <use style="stroke:#000000;stroke-width:0.8;" x="157.684111" xlink:href="#m2b05e97825" y="294.118125"/>
      </g>
     </g>
     <g id="text_4">
      <!-- 7.5 -->
      <g transform="translate(149.732549 308.716563)scale(0.1 -0.1)">
       <defs>
        <path d="M 8.203125 72.90625 
L 55.078125 72.90625 
L 55.078125 68.703125 
L 28.609375 0 
L 18.3125 0 
L 43.21875 64.59375 
L 8.203125 64.59375 
z
" id="DejaVuSans-55"/>
       </defs>
       <use xlink:href="#DejaVuSans-55"/>
       <use x="63.623047" xlink:href="#DejaVuSans-46"/>
       <use x="95.410156" xlink:href="#DejaVuSans-53"/>
      </g>
     </g>
    </g>
    <g id="xtick_5">
     <g id="line2d_5">
      <g>
       <use style="stroke:#000000;stroke-width:0.8;" x="193.917877" xlink:href="#m2b05e97825" y="294.118125"/>
      </g>
     </g>
     <g id="text_5">
      <!-- 10.0 -->
      <g transform="translate(182.785065 308.716563)scale(0.1 -0.1)">
       <defs>
        <path d="M 12.40625 8.296875 
L 28.515625 8.296875 
L 28.515625 63.921875 
L 10.984375 60.40625 
L 10.984375 69.390625 
L 28.421875 72.90625 
L 38.28125 72.90625 
L 38.28125 8.296875 
L 54.390625 8.296875 
L 54.390625 0 
L 12.40625 0 
z
" id="DejaVuSans-49"/>
       </defs>
       <use xlink:href="#DejaVuSans-49"/>
       <use x="63.623047" xlink:href="#DejaVuSans-48"/>
       <use x="127.246094" xlink:href="#DejaVuSans-46"/>
       <use x="159.033203" xlink:href="#DejaVuSans-48"/>
      </g>
     </g>
    </g>
    <g id="xtick_6">
     <g id="line2d_6">
      <g>
       <use style="stroke:#000000;stroke-width:0.8;" x="230.151644" xlink:href="#m2b05e97825" y="294.118125"/>
      </g>
     </g>
     <g id="text_6">
      <!-- 12.5 -->
      <g transform="translate(219.018831 308.716563)scale(0.1 -0.1)">
       <use xlink:href="#DejaVuSans-49"/>
       <use x="63.623047" xlink:href="#DejaVuSans-50"/>
       <use x="127.246094" xlink:href="#DejaVuSans-46"/>
       <use x="159.033203" xlink:href="#DejaVuSans-53"/>
      </g>
     </g>
    </g>
    <g id="xtick_7">
     <g id="line2d_7">
      <g>
       <use style="stroke:#000000;stroke-width:0.8;" x="266.38541" xlink:href="#m2b05e97825" y="294.118125"/>
      </g>
     </g>
     <g id="text_7">
      <!-- 15.0 -->
      <g transform="translate(255.252597 308.716563)scale(0.1 -0.1)">
       <use xlink:href="#DejaVuSans-49"/>
       <use x="63.623047" xlink:href="#DejaVuSans-53"/>
       <use x="127.246094" xlink:href="#DejaVuSans-46"/>
       <use x="159.033203" xlink:href="#DejaVuSans-48"/>
      </g>
     </g>
    </g>
    <g id="xtick_8">
     <g id="line2d_8">
      <g>
       <use style="stroke:#000000;stroke-width:0.8;" x="302.619176" xlink:href="#m2b05e97825" y="294.118125"/>
      </g>
     </g>
     <g id="text_8">
      <!-- 17.5 -->
      <g transform="translate(291.486364 308.716563)scale(0.1 -0.1)">
       <use xlink:href="#DejaVuSans-49"/>
       <use x="63.623047" xlink:href="#DejaVuSans-55"/>
       <use x="127.246094" xlink:href="#DejaVuSans-46"/>
       <use x="159.033203" xlink:href="#DejaVuSans-53"/>
      </g>
     </g>
    </g>
    <g id="xtick_9">
     <g id="line2d_9">
      <g>
       <use style="stroke:#000000;stroke-width:0.8;" x="338.852942" xlink:href="#m2b05e97825" y="294.118125"/>
      </g>
     </g>
     <g id="text_9">
      <!-- 20.0 -->
      <g transform="translate(327.72013 308.716563)scale(0.1 -0.1)">
       <use xlink:href="#DejaVuSans-50"/>
       <use x="63.623047" xlink:href="#DejaVuSans-48"/>
       <use x="127.246094" xlink:href="#DejaVuSans-46"/>
       <use x="159.033203" xlink:href="#DejaVuSans-48"/>
      </g>
     </g>
    </g>
    <g id="text_10">
     <!-- Local time / h -->
     <g transform="translate(167.288068 322.394687)scale(0.1 -0.1)">
      <defs>
       <path d="M 9.8125 72.90625 
L 19.671875 72.90625 
L 19.671875 8.296875 
L 55.171875 8.296875 
L 55.171875 0 
L 9.8125 0 
z
" id="DejaVuSans-76"/>
       <path d="M 30.609375 48.390625 
Q 23.390625 48.390625 19.1875 42.75 
Q 14.984375 37.109375 14.984375 27.296875 
Q 14.984375 17.484375 19.15625 11.84375 
Q 23.34375 6.203125 30.609375 6.203125 
Q 37.796875 6.203125 41.984375 11.859375 
Q 46.1875 17.53125 46.1875 27.296875 
Q 46.1875 37.015625 41.984375 42.703125 
Q 37.796875 48.390625 30.609375 48.390625 
z
M 30.609375 56 
Q 42.328125 56 49.015625 48.375 
Q 55.71875 40.765625 55.71875 27.296875 
Q 55.71875 13.875 49.015625 6.21875 
Q 42.328125 -1.421875 30.609375 -1.421875 
Q 18.84375 -1.421875 12.171875 6.21875 
Q 5.515625 13.875 5.515625 27.296875 
Q 5.515625 40.765625 12.171875 48.375 
Q 18.84375 56 30.609375 56 
z
" id="DejaVuSans-111"/>
       <path d="M 48.78125 52.59375 
L 48.78125 44.1875 
Q 44.96875 46.296875 41.140625 47.34375 
Q 37.3125 48.390625 33.40625 48.390625 
Q 24.65625 48.390625 19.8125 42.84375 
Q 14.984375 37.3125 14.984375 27.296875 
Q 14.984375 17.28125 19.8125 11.734375 
Q 24.65625 6.203125 33.40625 6.203125 
Q 37.3125 6.203125 41.140625 7.25 
Q 44.96875 8.296875 48.78125 10.40625 
L 48.78125 2.09375 
Q 45.015625 0.34375 40.984375 -0.53125 
Q 36.96875 -1.421875 32.421875 -1.421875 
Q 20.0625 -1.421875 12.78125 6.34375 
Q 5.515625 14.109375 5.515625 27.296875 
Q 5.515625 40.671875 12.859375 48.328125 
Q 20.21875 56 33.015625 56 
Q 37.15625 56 41.109375 55.140625 
Q 45.0625 54.296875 48.78125 52.59375 
z
" id="DejaVuSans-99"/>
       <path d="M 34.28125 27.484375 
Q 23.390625 27.484375 19.1875 25 
Q 14.984375 22.515625 14.984375 16.5 
Q 14.984375 11.71875 18.140625 8.90625 
Q 21.296875 6.109375 26.703125 6.109375 
Q 34.1875 6.109375 38.703125 11.40625 
Q 43.21875 16.703125 43.21875 25.484375 
L 43.21875 27.484375 
z
M 52.203125 31.203125 
L 52.203125 0 
L 43.21875 0 
L 43.21875 8.296875 
Q 40.140625 3.328125 35.546875 0.953125 
Q 30.953125 -1.421875 24.3125 -1.421875 
Q 15.921875 -1.421875 10.953125 3.296875 
Q 6 8.015625 6 15.921875 
Q 6 25.140625 12.171875 29.828125 
Q 18.359375 34.515625 30.609375 34.515625 
L 43.21875 34.515625 
L 43.21875 35.40625 
Q 43.21875 41.609375 39.140625 45 
Q 35.0625 48.390625 27.6875 48.390625 
Q 23 48.390625 18.546875 47.265625 
Q 14.109375 46.140625 10.015625 43.890625 
L 10.015625 52.203125 
Q 14.9375 54.109375 19.578125 55.046875 
Q 24.21875 56 28.609375 56 
Q 40.484375 56 46.34375 49.84375 
Q 52.203125 43.703125 52.203125 31.203125 
z
" id="DejaVuSans-97"/>
       <path d="M 9.421875 75.984375 
L 18.40625 75.984375 
L 18.40625 0 
L 9.421875 0 
z
" id="DejaVuSans-108"/>
       <path id="DejaVuSans-32"/>
       <path d="M 18.3125 70.21875 
L 18.3125 54.6875 
L 36.8125 54.6875 
L 36.8125 47.703125 
L 18.3125 47.703125 
L 18.3125 18.015625 
Q 18.3125 11.328125 20.140625 9.421875 
Q 21.96875 7.515625 27.59375 7.515625 
L 36.8125 7.515625 
L 36.8125 0 
L 27.59375 0 
Q 17.1875 0 13.234375 3.875 
Q 9.28125 7.765625 9.28125 18.015625 
L 9.28125 47.703125 
L 2.6875 47.703125 
L 2.6875 54.6875 
L 9.28125 54.6875 
L 9.28125 70.21875 
z
" id="DejaVuSans-116"/>
       <path d="M 9.421875 54.6875 
L 18.40625 54.6875 
L 18.40625 0 
L 9.421875 0 
z
M 9.421875 75.984375 
L 18.40625 75.984375 
L 18.40625 64.59375 
L 9.421875 64.59375 
z
" id="DejaVuSans-105"/>
       <path d="M 52 44.1875 
Q 55.375 50.25 60.0625 53.125 
Q 64.75 56 71.09375 56 
Q 79.640625 56 84.28125 50.015625 
Q 88.921875 44.046875 88.921875 33.015625 
L 88.921875 0 
L 79.890625 0 
L 79.890625 32.71875 
Q 79.890625 40.578125 77.09375 44.375 
Q 74.3125 48.1875 68.609375 48.1875 
Q 61.625 48.1875 57.5625 43.546875 
Q 53.515625 38.921875 53.515625 30.90625 
L 53.515625 0 
L 44.484375 0 
L 44.484375 32.71875 
Q 44.484375 40.625 41.703125 44.40625 
Q 38.921875 48.1875 33.109375 48.1875 
Q 26.21875 48.1875 22.15625 43.53125 
Q 18.109375 38.875 18.109375 30.90625 
L 18.109375 0 
L 9.078125 0 
L 9.078125 54.6875 
L 18.109375 54.6875 
L 18.109375 46.1875 
Q 21.1875 51.21875 25.484375 53.609375 
Q 29.78125 56 35.6875 56 
Q 41.65625 56 45.828125 52.96875 
Q 50 49.953125 52 44.1875 
z
" id="DejaVuSans-109"/>
       <path d="M 56.203125 29.59375 
L 56.203125 25.203125 
L 14.890625 25.203125 
Q 15.484375 15.921875 20.484375 11.0625 
Q 25.484375 6.203125 34.421875 6.203125 
Q 39.59375 6.203125 44.453125 7.46875 
Q 49.3125 8.734375 54.109375 11.28125 
L 54.109375 2.78125 
Q 49.265625 0.734375 44.1875 -0.34375 
Q 39.109375 -1.421875 33.890625 -1.421875 
Q 20.796875 -1.421875 13.15625 6.1875 
Q 5.515625 13.8125 5.515625 26.8125 
Q 5.515625 40.234375 12.765625 48.109375 
Q 20.015625 56 32.328125 56 
Q 43.359375 56 49.78125 48.890625 
Q 56.203125 41.796875 56.203125 29.59375 
z
M 47.21875 32.234375 
Q 47.125 39.59375 43.09375 43.984375 
Q 39.0625 48.390625 32.421875 48.390625 
Q 24.90625 48.390625 20.390625 44.140625 
Q 15.875 39.890625 15.1875 32.171875 
z
" id="DejaVuSans-101"/>
       <path d="M 25.390625 72.90625 
L 33.6875 72.90625 
L 8.296875 -9.28125 
L 0 -9.28125 
z
" id="DejaVuSans-47"/>
       <path d="M 54.890625 33.015625 
L 54.890625 0 
L 45.90625 0 
L 45.90625 32.71875 
Q 45.90625 40.484375 42.875 44.328125 
Q 39.84375 48.1875 33.796875 48.1875 
Q 26.515625 48.1875 22.3125 43.546875 
Q 18.109375 38.921875 18.109375 30.90625 
L 18.109375 0 
L 9.078125 0 
L 9.078125 75.984375 
L 18.109375 75.984375 
L 18.109375 46.1875 
Q 21.34375 51.125 25.703125 53.5625 
Q 30.078125 56 35.796875 56 
Q 45.21875 56 50.046875 50.171875 
Q 54.890625 44.34375 54.890625 33.015625 
z
" id="DejaVuSans-104"/>
      </defs>
      <use xlink:href="#DejaVuSans-76"/>
      <use x="53.962891" xlink:href="#DejaVuSans-111"/>
      <use x="115.144531" xlink:href="#DejaVuSans-99"/>
      <use x="170.125" xlink:href="#DejaVuSans-97"/>
      <use x="231.404297" xlink:href="#DejaVuSans-108"/>
      <use x="259.1875" xlink:href="#DejaVuSans-32"/>
      <use x="290.974609" xlink:href="#DejaVuSans-116"/>
      <use x="330.183594" xlink:href="#DejaVuSans-105"/>
      <use x="357.966797" xlink:href="#DejaVuSans-109"/>
      <use x="455.378906" xlink:href="#DejaVuSans-101"/>
      <use x="516.902344" xlink:href="#DejaVuSans-32"/>
      <use x="548.689453" xlink:href="#DejaVuSans-47"/>
      <use x="582.380859" xlink:href="#DejaVuSans-32"/>
      <use x="614.167969" xlink:href="#DejaVuSans-104"/>
     </g>
    </g>
   </g>
   <g id="matplotlib.axis_2">
    <g id="ytick_1">
     <g id="line2d_10">
      <defs>
       <path d="M 0 0 
L -3.5 0 
" id="m60e36dbddc" style="stroke:#000000;stroke-width:0.8;"/>
      </defs>
      <g>
       <use style="stroke:#000000;stroke-width:0.8;" x="48.982813" xlink:href="#m60e36dbddc" y="278.12989"/>
      </g>
     </g>
     <g id="text_11">
      <!-- −80 -->
      <g transform="translate(20.878125 281.929108)scale(0.1 -0.1)">
       <defs>
        <path d="M 10.59375 35.5 
L 73.1875 35.5 
L 73.1875 27.203125 
L 10.59375 27.203125 
z
" id="DejaVuSans-8722"/>
        <path d="M 31.78125 34.625 
Q 24.75 34.625 20.71875 30.859375 
Q 16.703125 27.09375 16.703125 20.515625 
Q 16.703125 13.921875 20.71875 10.15625 
Q 24.75 6.390625 31.78125 6.390625 
Q 38.8125 6.390625 42.859375 10.171875 
Q 46.921875 13.96875 46.921875 20.515625 
Q 46.921875 27.09375 42.890625 30.859375 
Q 38.875 34.625 31.78125 34.625 
z
M 21.921875 38.8125 
Q 15.578125 40.375 12.03125 44.71875 
Q 8.5 49.078125 8.5 55.328125 
Q 8.5 64.0625 14.71875 69.140625 
Q 20.953125 74.21875 31.78125 74.21875 
Q 42.671875 74.21875 48.875 69.140625 
Q 55.078125 64.0625 55.078125 55.328125 
Q 55.078125 49.078125 51.53125 44.71875 
Q 48 40.375 41.703125 38.8125 
Q 48.828125 37.15625 52.796875 32.3125 
Q 56.78125 27.484375 56.78125 20.515625 
Q 56.78125 9.90625 50.3125 4.234375 
Q 43.84375 -1.421875 31.78125 -1.421875 
Q 19.734375 -1.421875 13.25 4.234375 
Q 6.78125 9.90625 6.78125 20.515625 
Q 6.78125 27.484375 10.78125 32.3125 
Q 14.796875 37.15625 21.921875 38.8125 
z
M 18.3125 54.390625 
Q 18.3125 48.734375 21.84375 45.5625 
Q 25.390625 42.390625 31.78125 42.390625 
Q 38.140625 42.390625 41.71875 45.5625 
Q 45.3125 48.734375 45.3125 54.390625 
Q 45.3125 60.0625 41.71875 63.234375 
Q 38.140625 66.40625 31.78125 66.40625 
Q 25.390625 66.40625 21.84375 63.234375 
Q 18.3125 60.0625 18.3125 54.390625 
z
" id="DejaVuSans-56"/>
       </defs>
       <use xlink:href="#DejaVuSans-8722"/>
       <use x="83.789062" xlink:href="#DejaVuSans-56"/>
       <use x="147.412109" xlink:href="#DejaVuSans-48"/>
      </g>
     </g>
    </g>
    <g id="ytick_2">
     <g id="line2d_11">
      <g>
       <use style="stroke:#000000;stroke-width:0.8;" x="48.982813" xlink:href="#m60e36dbddc" y="246.153419"/>
      </g>
     </g>
     <g id="text_12">
      <!-- −60 -->
      <g transform="translate(20.878125 249.952638)scale(0.1 -0.1)">
       <defs>
        <path d="M 33.015625 40.375 
Q 26.375 40.375 22.484375 35.828125 
Q 18.609375 31.296875 18.609375 23.390625 
Q 18.609375 15.53125 22.484375 10.953125 
Q 26.375 6.390625 33.015625 6.390625 
Q 39.65625 6.390625 43.53125 10.953125 
Q 47.40625 15.53125 47.40625 23.390625 
Q 47.40625 31.296875 43.53125 35.828125 
Q 39.65625 40.375 33.015625 40.375 
z
M 52.59375 71.296875 
L 52.59375 62.3125 
Q 48.875 64.0625 45.09375 64.984375 
Q 41.3125 65.921875 37.59375 65.921875 
Q 27.828125 65.921875 22.671875 59.328125 
Q 17.53125 52.734375 16.796875 39.40625 
Q 19.671875 43.65625 24.015625 45.921875 
Q 28.375 48.1875 33.59375 48.1875 
Q 44.578125 48.1875 50.953125 41.515625 
Q 57.328125 34.859375 57.328125 23.390625 
Q 57.328125 12.15625 50.6875 5.359375 
Q 44.046875 -1.421875 33.015625 -1.421875 
Q 20.359375 -1.421875 13.671875 8.265625 
Q 6.984375 17.96875 6.984375 36.375 
Q 6.984375 53.65625 15.1875 63.9375 
Q 23.390625 74.21875 37.203125 74.21875 
Q 40.921875 74.21875 44.703125 73.484375 
Q 48.484375 72.75 52.59375 71.296875 
z
" id="DejaVuSans-54"/>
       </defs>
       <use xlink:href="#DejaVuSans-8722"/>
       <use x="83.789062" xlink:href="#DejaVuSans-54"/>
       <use x="147.412109" xlink:href="#DejaVuSans-48"/>
      </g>
     </g>
    </g>
    <g id="ytick_3">
     <g id="line2d_12">
      <g>
       <use style="stroke:#000000;stroke-width:0.8;" x="48.982813" xlink:href="#m60e36dbddc" y="214.176949"/>
      </g>
     </g>
     <g id="text_13">
      <!-- −40 -->
      <g transform="translate(20.878125 217.976167)scale(0.1 -0.1)">
       <defs>
        <path d="M 37.796875 64.3125 
L 12.890625 25.390625 
L 37.796875 25.390625 
z
M 35.203125 72.90625 
L 47.609375 72.90625 
L 47.609375 25.390625 
L 58.015625 25.390625 
L 58.015625 17.1875 
L 47.609375 17.1875 
L 47.609375 0 
L 37.796875 0 
L 37.796875 17.1875 
L 4.890625 17.1875 
L 4.890625 26.703125 
z
" id="DejaVuSans-52"/>
       </defs>
       <use xlink:href="#DejaVuSans-8722"/>
       <use x="83.789062" xlink:href="#DejaVuSans-52"/>
       <use x="147.412109" xlink:href="#DejaVuSans-48"/>
      </g>
     </g>
    </g>
    <g id="ytick_4">
     <g id="line2d_13">
      <g>
       <use style="stroke:#000000;stroke-width:0.8;" x="48.982813" xlink:href="#m60e36dbddc" y="182.200478"/>
      </g>
     </g>
     <g id="text_14">
      <!-- −20 -->
      <g transform="translate(20.878125 185.999697)scale(0.1 -0.1)">
       <use xlink:href="#DejaVuSans-8722"/>
       <use x="83.789062" xlink:href="#DejaVuSans-50"/>
       <use x="147.412109" xlink:href="#DejaVuSans-48"/>
      </g>
     </g>
    </g>
    <g id="ytick_5">
     <g id="line2d_14">
      <g>
       <use style="stroke:#000000;stroke-width:0.8;" x="48.982813" xlink:href="#m60e36dbddc" y="150.224007"/>
      </g>
     </g>
     <g id="text_15">
      <!-- 0 -->
      <g transform="translate(35.620313 154.023226)scale(0.1 -0.1)">
       <use xlink:href="#DejaVuSans-48"/>
      </g>
     </g>
    </g>
    <g id="ytick_6">
     <g id="line2d_15">
      <g>
       <use style="stroke:#000000;stroke-width:0.8;" x="48.982813" xlink:href="#m60e36dbddc" y="118.247537"/>
      </g>
     </g>
     <g id="text_16">
      <!-- 20 -->
      <g transform="translate(29.257813 122.046756)scale(0.1 -0.1)">
       <use xlink:href="#DejaVuSans-50"/>
       <use x="63.623047" xlink:href="#DejaVuSans-48"/>
      </g>
     </g>
    </g>
    <g id="ytick_7">
     <g id="line2d_16">
      <g>
       <use style="stroke:#000000;stroke-width:0.8;" x="48.982813" xlink:href="#m60e36dbddc" y="86.271066"/>
      </g>
     </g>
     <g id="text_17">
      <!-- 40 -->
      <g transform="translate(29.257813 90.070285)scale(0.1 -0.1)">
       <use xlink:href="#DejaVuSans-52"/>
       <use x="63.623047" xlink:href="#DejaVuSans-48"/>
      </g>
     </g>
    </g>
    <g id="ytick_8">
     <g id="line2d_17">
      <g>
       <use style="stroke:#000000;stroke-width:0.8;" x="48.982813" xlink:href="#m60e36dbddc" y="54.294596"/>
      </g>
     </g>
     <g id="text_18">
      <!-- 60 -->
      <g transform="translate(29.257813 58.093814)scale(0.1 -0.1)">
       <use xlink:href="#DejaVuSans-54"/>
       <use x="63.623047" xlink:href="#DejaVuSans-48"/>
      </g>
     </g>
    </g>
    <g id="ytick_9">
     <g id="line2d_18">
      <g>
       <use style="stroke:#000000;stroke-width:0.8;" x="48.982813" xlink:href="#m60e36dbddc" y="22.318125"/>
      </g>
     </g>
     <g id="text_19">
      <!-- 80 -->
      <g transform="translate(29.257813 26.117344)scale(0.1 -0.1)">
       <use xlink:href="#DejaVuSans-56"/>
       <use x="63.623047" xlink:href="#DejaVuSans-48"/>
      </g>
     </g>
    </g>
    <g id="text_20">
     <!-- Latitude / deg -->
     <g transform="translate(14.798438 193.084531)rotate(-90)scale(0.1 -0.1)">
      <defs>
       <path d="M 8.5 21.578125 
L 8.5 54.6875 
L 17.484375 54.6875 
L 17.484375 21.921875 
Q 17.484375 14.15625 20.5 10.265625 
Q 23.53125 6.390625 29.59375 6.390625 
Q 36.859375 6.390625 41.078125 11.03125 
Q 45.3125 15.671875 45.3125 23.6875 
L 45.3125 54.6875 
L 54.296875 54.6875 
L 54.296875 0 
L 45.3125 0 
L 45.3125 8.40625 
Q 42.046875 3.421875 37.71875 1 
Q 33.40625 -1.421875 27.6875 -1.421875 
Q 18.265625 -1.421875 13.375 4.4375 
Q 8.5 10.296875 8.5 21.578125 
z
M 31.109375 56 
z
" id="DejaVuSans-117"/>
       <path d="M 45.40625 46.390625 
L 45.40625 75.984375 
L 54.390625 75.984375 
L 54.390625 0 
L 45.40625 0 
L 45.40625 8.203125 
Q 42.578125 3.328125 38.25 0.953125 
Q 33.9375 -1.421875 27.875 -1.421875 
Q 17.96875 -1.421875 11.734375 6.484375 
Q 5.515625 14.40625 5.515625 27.296875 
Q 5.515625 40.1875 11.734375 48.09375 
Q 17.96875 56 27.875 56 
Q 33.9375 56 38.25 53.625 
Q 42.578125 51.265625 45.40625 46.390625 
z
M 14.796875 27.296875 
Q 14.796875 17.390625 18.875 11.75 
Q 22.953125 6.109375 30.078125 6.109375 
Q 37.203125 6.109375 41.296875 11.75 
Q 45.40625 17.390625 45.40625 27.296875 
Q 45.40625 37.203125 41.296875 42.84375 
Q 37.203125 48.484375 30.078125 48.484375 
Q 22.953125 48.484375 18.875 42.84375 
Q 14.796875 37.203125 14.796875 27.296875 
z
" id="DejaVuSans-100"/>
       <path d="M 45.40625 27.984375 
Q 45.40625 37.75 41.375 43.109375 
Q 37.359375 48.484375 30.078125 48.484375 
Q 22.859375 48.484375 18.828125 43.109375 
Q 14.796875 37.75 14.796875 27.984375 
Q 14.796875 18.265625 18.828125 12.890625 
Q 22.859375 7.515625 30.078125 7.515625 
Q 37.359375 7.515625 41.375 12.890625 
Q 45.40625 18.265625 45.40625 27.984375 
z
M 54.390625 6.78125 
Q 54.390625 -7.171875 48.1875 -13.984375 
Q 42 -20.796875 29.203125 -20.796875 
Q 24.46875 -20.796875 20.265625 -20.09375 
Q 16.0625 -19.390625 12.109375 -17.921875 
L 12.109375 -9.1875 
Q 16.0625 -11.328125 19.921875 -12.34375 
Q 23.78125 -13.375 27.78125 -13.375 
Q 36.625 -13.375 41.015625 -8.765625 
Q 45.40625 -4.15625 45.40625 5.171875 
L 45.40625 9.625 
Q 42.625 4.78125 38.28125 2.390625 
Q 33.9375 0 27.875 0 
Q 17.828125 0 11.671875 7.65625 
Q 5.515625 15.328125 5.515625 27.984375 
Q 5.515625 40.671875 11.671875 48.328125 
Q 17.828125 56 27.875 56 
Q 33.9375 56 38.28125 53.609375 
Q 42.625 51.21875 45.40625 46.390625 
L 45.40625 54.6875 
L 54.390625 54.6875 
z
" id="DejaVuSans-103"/>
      </defs>
      <use xlink:href="#DejaVuSans-76"/>
      <use x="55.712891" xlink:href="#DejaVuSans-97"/>
      <use x="116.992188" xlink:href="#DejaVuSans-116"/>
      <use x="156.201172" xlink:href="#DejaVuSans-105"/>
      <use x="183.984375" xlink:href="#DejaVuSans-116"/>
      <use x="223.193359" xlink:href="#DejaVuSans-117"/>
      <use x="286.572266" xlink:href="#DejaVuSans-100"/>
      <use x="350.048828" xlink:href="#DejaVuSans-101"/>
      <use x="411.572266" xlink:href="#DejaVuSans-32"/>
      <use x="443.359375" xlink:href="#DejaVuSans-47"/>
      <use x="477.050781" xlink:href="#DejaVuSans-32"/>
      <use x="508.837891" xlink:href="#DejaVuSans-100"/>
      <use x="572.314453" xlink:href="#DejaVuSans-101"/>
      <use x="633.837891" xlink:href="#DejaVuSans-103"/>
     </g>
    </g>
   </g>
   <g id="patch_3">
    <path d="M 48.982813 294.118125 
L 48.982813 22.318125 
" style="fill:none;stroke:#000000;stroke-linecap:square;stroke-linejoin:miter;stroke-width:0.8;"/>
   </g>
   <g id="patch_4">
    <path d="M 353.346449 294.118125 
L 353.346449 22.318125 
" style="fill:none;stroke:#000000;stroke-linecap:square;stroke-linejoin:miter;stroke-width:0.8;"/>
   </g>
   <g id="patch_5">
    <path d="M 48.982813 294.118125 
L 353.346449 294.118125 
" style="fill:none;stroke:#000000;stroke-linecap:square;stroke-linejoin:miter;stroke-width:0.8;"/>
   </g>
   <g id="patch_6">
    <path d="M 48.982813 22.318125 
L 353.346449 22.318125 
" style="fill:none;stroke:#000000;stroke-linecap:square;stroke-linejoin:miter;stroke-width:0.8;"/>
   </g>
   <g id="text_21">
    <!-- Density / g/cm3 -->
    <g transform="translate(153.728068 16.318125)scale(0.12 -0.12)">
     <defs>
      <path d="M 19.671875 64.796875 
L 19.671875 8.109375 
L 31.59375 8.109375 
Q 46.6875 8.109375 53.6875 14.9375 
Q 60.6875 21.78125 60.6875 36.53125 
Q 60.6875 51.171875 53.6875 57.984375 
Q 46.6875 64.796875 31.59375 64.796875 
z
M 9.8125 72.90625 
L 30.078125 72.90625 
Q 51.265625 72.90625 61.171875 64.09375 
Q 71.09375 55.28125 71.09375 36.53125 
Q 71.09375 17.671875 61.125 8.828125 
Q 51.171875 0 30.078125 0 
L 9.8125 0 
z
" id="DejaVuSans-68"/>
      <path d="M 54.890625 33.015625 
L 54.890625 0 
L 45.90625 0 
L 45.90625 32.71875 
Q 45.90625 40.484375 42.875 44.328125 
Q 39.84375 48.1875 33.796875 48.1875 
Q 26.515625 48.1875 22.3125 43.546875 
Q 18.109375 38.921875 18.109375 30.90625 
L 18.109375 0 
L 9.078125 0 
L 9.078125 54.6875 
L 18.109375 54.6875 
L 18.109375 46.1875 
Q 21.34375 51.125 25.703125 53.5625 
Q 30.078125 56 35.796875 56 
Q 45.21875 56 50.046875 50.171875 
Q 54.890625 44.34375 54.890625 33.015625 
z
" id="DejaVuSans-110"/>
      <path d="M 44.28125 53.078125 
L 44.28125 44.578125 
Q 40.484375 46.53125 36.375 47.5 
Q 32.28125 48.484375 27.875 48.484375 
Q 21.1875 48.484375 17.84375 46.4375 
Q 14.5 44.390625 14.5 40.28125 
Q 14.5 37.15625 16.890625 35.375 
Q 19.28125 33.59375 26.515625 31.984375 
L 29.59375 31.296875 
Q 39.15625 29.25 43.1875 25.515625 
Q 47.21875 21.78125 47.21875 15.09375 
Q 47.21875 7.46875 41.1875 3.015625 
Q 35.15625 -1.421875 24.609375 -1.421875 
Q 20.21875 -1.421875 15.453125 -0.5625 
Q 10.6875 0.296875 5.421875 2 
L 5.421875 11.28125 
Q 10.40625 8.6875 15.234375 7.390625 
Q 20.0625 6.109375 24.8125 6.109375 
Q 31.15625 6.109375 34.5625 8.28125 
Q 37.984375 10.453125 37.984375 14.40625 
Q 37.984375 18.0625 35.515625 20.015625 
Q 33.0625 21.96875 24.703125 23.78125 
L 21.578125 24.515625 
Q 13.234375 26.265625 9.515625 29.90625 
Q 5.8125 33.546875 5.8125 39.890625 
Q 5.8125 47.609375 11.28125 51.796875 
Q 16.75 56 26.8125 56 
Q 31.78125 56 36.171875 55.265625 
Q 40.578125 54.546875 44.28125 53.078125 
z
" id="DejaVuSans-115"/>
      <path d="M 32.171875 -5.078125 
Q 28.375 -14.84375 24.75 -17.8125 
Q 21.140625 -20.796875 15.09375 -20.796875 
L 7.90625 -20.796875 
L 7.90625 -13.28125 
L 13.1875 -13.28125 
Q 16.890625 -13.28125 18.9375 -11.515625 
Q 21 -9.765625 23.484375 -3.21875 
L 25.09375 0.875 
L 2.984375 54.6875 
L 12.5 54.6875 
L 29.59375 11.921875 
L 46.6875 54.6875 
L 56.203125 54.6875 
z
" id="DejaVuSans-121"/>
      <path d="M 40.578125 39.3125 
Q 47.65625 37.796875 51.625 33 
Q 55.609375 28.21875 55.609375 21.1875 
Q 55.609375 10.40625 48.1875 4.484375 
Q 40.765625 -1.421875 27.09375 -1.421875 
Q 22.515625 -1.421875 17.65625 -0.515625 
Q 12.796875 0.390625 7.625 2.203125 
L 7.625 11.71875 
Q 11.71875 9.328125 16.59375 8.109375 
Q 21.484375 6.890625 26.8125 6.890625 
Q 36.078125 6.890625 40.9375 10.546875 
Q 45.796875 14.203125 45.796875 21.1875 
Q 45.796875 27.640625 41.28125 31.265625 
Q 36.765625 34.90625 28.71875 34.90625 
L 20.21875 34.90625 
L 20.21875 43.015625 
L 29.109375 43.015625 
Q 36.375 43.015625 40.234375 45.921875 
Q 44.09375 48.828125 44.09375 54.296875 
Q 44.09375 59.90625 40.109375 62.90625 
Q 36.140625 65.921875 28.71875 65.921875 
Q 24.65625 65.921875 20.015625 65.03125 
Q 15.375 64.15625 9.8125 62.3125 
L 9.8125 71.09375 
Q 15.4375 72.65625 20.34375 73.4375 
Q 25.25 74.21875 29.59375 74.21875 
Q 40.828125 74.21875 47.359375 69.109375 
Q 53.90625 64.015625 53.90625 55.328125 
Q 53.90625 49.265625 50.4375 45.09375 
Q 46.96875 40.921875 40.578125 39.3125 
z
" id="DejaVuSans-51"/>
     </defs>
     <use xlink:href="#DejaVuSans-68"/>
     <use x="77.001953" xlink:href="#DejaVuSans-101"/>
     <use x="138.525391" xlink:href="#DejaVuSans-110"/>
     <use x="201.904297" xlink:href="#DejaVuSans-115"/>
     <use x="254.003906" xlink:href="#DejaVuSans-105"/>
     <use x="281.787109" xlink:href="#DejaVuSans-116"/>
     <use x="320.996094" xlink:href="#DejaVuSans-121"/>
     <use x="380.175781" xlink:href="#DejaVuSans-32"/>
     <use x="411.962891" xlink:href="#DejaVuSans-47"/>
     <use x="445.654297" xlink:href="#DejaVuSans-32"/>
     <use x="477.441406" xlink:href="#DejaVuSans-103"/>
     <use x="540.917969" xlink:href="#DejaVuSans-47"/>
     <use x="574.609375" xlink:href="#DejaVuSans-99"/>
     <use x="629.589844" xlink:href="#DejaVuSans-109"/>
     <use x="727.001953" xlink:href="#DejaVuSans-51"/>
    </g>
   </g>
  </g>
  <g id="axes_2">
   <g id="patch_7">
    <path d="M 505.528267 294.118125 
L 809.891903 294.118125 
L 809.891903 22.318125 
L 505.528267 22.318125 
z
" style="fill:#ffffff;"/>
   </g>
   <g id="PathCollection_10">
    <path clip-path="url(#p62a02ef07f)" d="M 592.489306 121.817159 
L 593.188384 118.247537 
L 594.054103 102.259301 
L 592.489306 92.931988 
L 579.225463 86.271066 
L 549.008787 75.796688 
L 542.114442 86.271066 
L 547.411978 102.259301 
L 549.008787 104.514719 
L 585.570545 118.247537 
z
" style="fill:#481668;"/>
   </g>
   <g id="PathCollection_11">
    <path clip-path="url(#p62a02ef07f)" d="M 549.008787 180.598698 
L 592.489306 172.888796 
L 596.486011 166.212243 
L 603.737177 150.224007 
L 609.416615 134.235772 
L 614.168919 118.247537 
L 618.014502 102.259301 
L 619.737164 86.271066 
L 616.27694 70.282831 
L 602.322574 54.294596 
L 592.489306 48.414364 
L 549.008787 41.636667 
L 505.528267 52.665394 
L 505.528267 54.294596 
L 505.528267 70.282831 
L 505.528267 86.271066 
L 505.528267 102.259301 
L 505.528267 114.62478 
L 508.966547 118.247537 
L 522.492785 134.235772 
L 532.430997 150.224007 
L 540.514041 166.212243 
z
M 585.570545 118.247537 
L 549.008787 104.514719 
L 547.411978 102.259301 
L 542.114442 86.271066 
L 549.008787 75.796688 
L 579.225463 86.271066 
L 592.489306 92.931988 
L 594.054103 102.259301 
L 593.188384 118.247537 
L 592.489306 121.817159 
z
" style="fill:#443983;"/>
   </g>
   <g id="PathCollection_12">
    <path clip-path="url(#p62a02ef07f)" d="M 549.008787 217.137051 
L 556.30613 214.176949 
L 592.489306 199.142181 
L 593.377271 198.188713 
L 605.406706 182.200478 
L 614.52593 166.212243 
L 621.936668 150.224007 
L 628.56343 134.235772 
L 635.149454 118.247537 
L 635.969825 116.089761 
L 641.597567 102.259301 
L 647.965127 86.271066 
L 652.093323 70.282831 
L 649.972074 54.294596 
L 637.849767 38.30636 
L 635.969825 36.629938 
L 603.685204 22.318125 
L 592.489306 22.318125 
L 549.008787 22.318125 
L 505.528267 22.318125 
L 505.528267 38.30636 
L 505.528267 52.665394 
L 549.008787 41.636667 
L 592.489306 48.414364 
L 602.322574 54.294596 
L 616.27694 70.282831 
L 619.737164 86.271066 
L 618.014502 102.259301 
L 614.168919 118.247537 
L 609.416615 134.235772 
L 603.737177 150.224007 
L 596.486011 166.212243 
L 592.489306 172.888796 
L 549.008787 180.598698 
L 540.514041 166.212243 
L 532.430997 150.224007 
L 522.492785 134.235772 
L 508.966547 118.247537 
L 505.528267 114.62478 
L 505.528267 118.247537 
L 505.528267 134.235772 
L 505.528267 150.224007 
L 505.528267 166.212243 
L 505.528267 182.200478 
L 505.528267 185.155427 
L 515.538205 198.188713 
L 540.895684 214.176949 
z
" style="fill:#375a8c;"/>
   </g>
   <g id="PathCollection_13">
    <path clip-path="url(#p62a02ef07f)" d="M 549.008787 236.797729 
L 568.643772 230.165184 
L 592.489306 220.529139 
L 599.726633 214.176949 
L 613.695155 198.188713 
L 624.100192 182.200478 
L 632.565848 166.212243 
L 635.969825 158.9883 
L 640.079604 150.224007 
L 646.964133 134.235772 
L 654.557795 118.247537 
L 664.052396 102.259301 
L 675.729236 86.271066 
L 679.450345 80.507452 
L 690.83061 70.282831 
L 705.483924 54.294596 
L 721.677244 38.30636 
L 722.930864 37.536092 
L 728.454887 38.30636 
L 766.411384 43.143777 
L 773.673574 54.294596 
L 783.57909 70.282831 
L 793.087561 86.271066 
L 801.557212 102.259301 
L 808.507234 118.247537 
L 809.891903 121.996424 
L 809.891903 118.247537 
L 809.891903 102.259301 
L 809.891903 86.271066 
L 809.891903 70.282831 
L 809.891903 54.294596 
L 809.891903 38.30636 
L 809.891903 22.318125 
L 766.411384 22.318125 
L 722.930864 22.318125 
L 679.450345 22.318125 
L 635.969825 22.318125 
L 603.685204 22.318125 
L 635.969825 36.629938 
L 637.849767 38.30636 
L 649.972074 54.294596 
L 652.093323 70.282831 
L 647.965127 86.271066 
L 641.597567 102.259301 
L 635.969825 116.089761 
L 635.149454 118.247537 
L 628.56343 134.235772 
L 621.936668 150.224007 
L 614.52593 166.212243 
L 605.406706 182.200478 
L 593.377271 198.188713 
L 592.489306 199.142181 
L 556.30613 214.176949 
L 549.008787 217.137051 
L 540.895684 214.176949 
L 515.538205 198.188713 
L 505.528267 185.155427 
L 505.528267 198.188713 
L 505.528267 214.176949 
L 505.528267 224.306081 
L 521.613024 230.165184 
z
" style="fill:#2b758e;"/>
   </g>
   <g id="PathCollection_14">
    <path clip-path="url(#p62a02ef07f)" d="M 549.008787 253.396979 
L 576.522681 246.153419 
L 592.489306 240.847664 
L 607.489165 230.165184 
L 623.008309 214.176949 
L 634.013039 198.188713 
L 635.969825 194.85109 
L 644.250352 182.200478 
L 651.739216 166.212243 
L 658.032055 150.224007 
L 664.894153 134.235772 
L 673.902158 118.247537 
L 679.450345 110.618605 
L 689.009061 102.259301 
L 711.267641 86.271066 
L 722.930864 78.424143 
L 766.411384 79.648096 
L 772.020735 86.271066 
L 784.224568 102.259301 
L 793.312855 118.247537 
L 799.993854 134.235772 
L 805.132258 150.224007 
L 809.622169 166.212243 
L 809.891903 167.203401 
L 809.891903 166.212243 
L 809.891903 150.224007 
L 809.891903 134.235772 
L 809.891903 121.996424 
L 808.507234 118.247537 
L 801.557212 102.259301 
L 793.087561 86.271066 
L 783.57909 70.282831 
L 773.673574 54.294596 
L 766.411384 43.143777 
L 728.454887 38.30636 
L 722.930864 37.536092 
L 721.677244 38.30636 
L 705.483924 54.294596 
L 690.83061 70.282831 
L 679.450345 80.507452 
L 675.729236 86.271066 
L 664.052396 102.259301 
L 654.557795 118.247537 
L 646.964133 134.235772 
L 640.079604 150.224007 
L 635.969825 158.9883 
L 632.565848 166.212243 
L 624.100192 182.200478 
L 613.695155 198.188713 
L 599.726633 214.176949 
L 592.489306 220.529139 
L 568.643772 230.165184 
L 549.008787 236.797729 
L 521.613024 230.165184 
L 505.528267 224.306081 
L 505.528267 230.165184 
L 505.528267 245.720294 
L 507.5011 246.153419 
z
" style="fill:#21918c;"/>
   </g>
   <g id="PathCollection_15">
    <path clip-path="url(#p62a02ef07f)" d="M 549.008787 270.091205 
L 591.458621 262.141654 
L 592.489306 261.906219 
L 620.17154 246.153419 
L 635.874469 230.165184 
L 635.969825 230.044928 
L 652.049007 214.176949 
L 661.440486 198.188713 
L 666.9343 182.200478 
L 671.176198 166.212243 
L 675.984505 150.224007 
L 679.450345 142.127345 
L 684.244455 134.235772 
L 698.691224 118.247537 
L 719.424678 102.259301 
L 722.930864 99.949233 
L 766.411384 101.677173 
L 766.891925 102.259301 
L 778.118475 118.247537 
L 785.903663 134.235772 
L 791.363952 150.224007 
L 795.461307 166.212243 
L 798.977327 182.200478 
L 802.630236 198.188713 
L 807.39596 214.176949 
L 809.891903 220.309568 
L 809.891903 214.176949 
L 809.891903 198.188713 
L 809.891903 182.200478 
L 809.891903 167.203401 
L 809.622169 166.212243 
L 805.132258 150.224007 
L 799.993854 134.235772 
L 793.312855 118.247537 
L 784.224568 102.259301 
L 772.020735 86.271066 
L 766.411384 79.648096 
L 722.930864 78.424143 
L 711.267641 86.271066 
L 689.009061 102.259301 
L 679.450345 110.618605 
L 673.902158 118.247537 
L 664.894153 134.235772 
L 658.032055 150.224007 
L 651.739216 166.212243 
L 644.250352 182.200478 
L 635.969825 194.85109 
L 634.013039 198.188713 
L 623.008309 214.176949 
L 607.489165 230.165184 
L 592.489306 240.847664 
L 576.522681 246.153419 
L 549.008787 253.396979 
L 507.5011 246.153419 
L 505.528267 245.720294 
L 505.528267 246.153419 
L 505.528267 262.141654 
L 505.528267 264.946526 
z
" style="fill:#25ab82;"/>
   </g>
   <g id="PathCollection_16">
    <path clip-path="url(#p62a02ef07f)" d="M 549.008787 290.331396 
L 592.489306 288.822982 
L 631.057213 278.12989 
L 635.969825 275.494021 
L 652.944617 262.141654 
L 670.01291 246.153419 
L 679.450345 234.662601 
L 683.392842 230.165184 
L 690.884982 214.176949 
L 692.705157 198.188713 
L 693.165278 182.200478 
L 695.023471 166.212243 
L 700.047263 150.224007 
L 709.722476 134.235772 
L 722.930864 120.865849 
L 766.411384 124.234575 
L 771.813472 134.235772 
L 777.595645 150.224007 
L 781.300445 166.212243 
L 783.643334 182.200478 
L 785.134609 198.188713 
L 786.32724 214.176949 
L 788.119407 230.165184 
L 791.910554 246.153419 
L 799.641766 262.141654 
L 809.891903 274.345933 
L 809.891903 262.141654 
L 809.891903 246.153419 
L 809.891903 230.165184 
L 809.891903 220.309568 
L 807.39596 214.176949 
L 802.630236 198.188713 
L 798.977327 182.200478 
L 795.461307 166.212243 
L 791.363952 150.224007 
L 785.903663 134.235772 
L 778.118475 118.247537 
L 766.891925 102.259301 
L 766.411384 101.677173 
L 722.930864 99.949233 
L 719.424678 102.259301 
L 698.691224 118.247537 
L 684.244455 134.235772 
L 679.450345 142.127345 
L 675.984505 150.224007 
L 671.176198 166.212243 
L 666.9343 182.200478 
L 661.440486 198.188713 
L 652.049007 214.176949 
L 635.969825 230.044928 
L 635.874469 230.165184 
L 620.17154 246.153419 
L 592.489306 261.906219 
L 591.458621 262.141654 
L 549.008787 270.091205 
L 505.528267 264.946526 
L 505.528267 278.12989 
L 505.528267 289.204819 
z
" style="fill:#4ec36b;"/>
   </g>
   <g id="PathCollection_17">
    <path clip-path="url(#p62a02ef07f)" d="M 549.008787 294.118125 
L 592.489306 294.118125 
L 635.969825 294.118125 
L 679.450345 294.118125 
L 722.930864 294.118125 
L 766.411384 294.118125 
L 809.891903 294.118125 
L 809.891903 278.12989 
L 809.891903 274.345933 
L 799.641766 262.141654 
L 791.910554 246.153419 
L 788.119407 230.165184 
L 786.32724 214.176949 
L 785.134609 198.188713 
L 783.643334 182.200478 
L 781.300445 166.212243 
L 777.595645 150.224007 
L 771.813472 134.235772 
L 766.411384 124.234575 
L 722.930864 120.865849 
L 709.722476 134.235772 
L 700.047263 150.224007 
L 695.023471 166.212243 
L 693.165278 182.200478 
L 692.705157 198.188713 
L 690.884982 214.176949 
L 683.392842 230.165184 
L 679.450345 234.662601 
L 670.01291 246.153419 
L 652.944617 262.141654 
L 635.969825 275.494021 
L 631.057213 278.12989 
L 592.489306 288.822982 
L 549.008787 290.331396 
L 505.528267 289.204819 
L 505.528267 294.118125 
z
M 754.055813 198.188713 
L 730.759186 182.200478 
L 722.930864 174.489663 
L 722.139752 166.212243 
L 722.930864 162.695661 
L 766.411384 162.773704 
L 767.139583 166.212243 
L 768.30934 182.200478 
L 767.638982 198.188713 
L 766.411384 207.171605 
z
" style="fill:#90d743;"/>
   </g>
   <g id="PathCollection_18">
    <path clip-path="url(#p62a02ef07f)" d="M 766.411384 207.171605 
L 767.638982 198.188713 
L 768.30934 182.200478 
L 767.139583 166.212243 
L 766.411384 162.773704 
L 722.930864 162.695661 
L 722.139752 166.212243 
L 722.930864 174.489663 
L 730.759186 182.200478 
L 754.055813 198.188713 
z
" style="fill:#dae319;"/>
   </g>
   <g id="matplotlib.axis_3">
    <g id="xtick_10">
     <g id="line2d_19">
      <g>
       <use style="stroke:#000000;stroke-width:0.8;" x="505.528267" xlink:href="#m2b05e97825" y="294.118125"/>
      </g>
     </g>
     <g id="text_22">
      <!-- 0.0 -->
      <g transform="translate(497.576705 308.716563)scale(0.1 -0.1)">
       <use xlink:href="#DejaVuSans-48"/>
       <use x="63.623047" xlink:href="#DejaVuSans-46"/>
       <use x="95.410156" xlink:href="#DejaVuSans-48"/>
      </g>
     </g>
    </g>
    <g id="xtick_11">
     <g id="line2d_20">
      <g>
       <use style="stroke:#000000;stroke-width:0.8;" x="541.762033" xlink:href="#m2b05e97825" y="294.118125"/>
      </g>
     </g>
     <g id="text_23">
      <!-- 2.5 -->
      <g transform="translate(533.810471 308.716563)scale(0.1 -0.1)">
       <use xlink:href="#DejaVuSans-50"/>
       <use x="63.623047" xlink:href="#DejaVuSans-46"/>
       <use x="95.410156" xlink:href="#DejaVuSans-53"/>
      </g>
     </g>
    </g>
    <g id="xtick_12">
     <g id="line2d_21">
      <g>
       <use style="stroke:#000000;stroke-width:0.8;" x="577.9958" xlink:href="#m2b05e97825" y="294.118125"/>
      </g>
     </g>
     <g id="text_24">
      <!-- 5.0 -->
      <g transform="translate(570.044237 308.716563)scale(0.1 -0.1)">
       <use xlink:href="#DejaVuSans-53"/>
       <use x="63.623047" xlink:href="#DejaVuSans-46"/>
       <use x="95.410156" xlink:href="#DejaVuSans-48"/>
      </g>
     </g>
    </g>
    <g id="xtick_13">
     <g id="line2d_22">
      <g>
       <use style="stroke:#000000;stroke-width:0.8;" x="614.229566" xlink:href="#m2b05e97825" y="294.118125"/>
      </g>
     </g>
     <g id="text_25">
      <!-- 7.5 -->
      <g transform="translate(606.278003 308.716563)scale(0.1 -0.1)">
       <use xlink:href="#DejaVuSans-55"/>
       <use x="63.623047" xlink:href="#DejaVuSans-46"/>
       <use x="95.410156" xlink:href="#DejaVuSans-53"/>
      </g>
     </g>
    </g>
    <g id="xtick_14">
     <g id="line2d_23">
      <g>
       <use style="stroke:#000000;stroke-width:0.8;" x="650.463332" xlink:href="#m2b05e97825" y="294.118125"/>
      </g>
     </g>
     <g id="text_26">
      <!-- 10.0 -->
      <g transform="translate(639.330519 308.716563)scale(0.1 -0.1)">
       <use xlink:href="#DejaVuSans-49"/>
       <use x="63.623047" xlink:href="#DejaVuSans-48"/>
       <use x="127.246094" xlink:href="#DejaVuSans-46"/>
       <use x="159.033203" xlink:href="#DejaVuSans-48"/>
      </g>
     </g>
    </g>
    <g id="xtick_15">
     <g id="line2d_24">
      <g>
       <use style="stroke:#000000;stroke-width:0.8;" x="686.697098" xlink:href="#m2b05e97825" y="294.118125"/>
      </g>
     </g>
     <g id="text_27">
      <!-- 12.5 -->
      <g transform="translate(675.564286 308.716563)scale(0.1 -0.1)">
       <use xlink:href="#DejaVuSans-49"/>
       <use x="63.623047" xlink:href="#DejaVuSans-50"/>
       <use x="127.246094" xlink:href="#DejaVuSans-46"/>
       <use x="159.033203" xlink:href="#DejaVuSans-53"/>
      </g>
     </g>
    </g>
    <g id="xtick_16">
     <g id="line2d_25">
      <g>
       <use style="stroke:#000000;stroke-width:0.8;" x="722.930864" xlink:href="#m2b05e97825" y="294.118125"/>
      </g>
     </g>
     <g id="text_28">
      <!-- 15.0 -->
      <g transform="translate(711.798052 308.716563)scale(0.1 -0.1)">
       <use xlink:href="#DejaVuSans-49"/>
       <use x="63.623047" xlink:href="#DejaVuSans-53"/>
       <use x="127.246094" xlink:href="#DejaVuSans-46"/>
       <use x="159.033203" xlink:href="#DejaVuSans-48"/>
      </g>
     </g>
    </g>
    <g id="xtick_17">
     <g id="line2d_26">
      <g>
       <use style="stroke:#000000;stroke-width:0.8;" x="759.164631" xlink:href="#m2b05e97825" y="294.118125"/>
      </g>
     </g>
     <g id="text_29">
      <!-- 17.5 -->
      <g transform="translate(748.031818 308.716563)scale(0.1 -0.1)">
       <use xlink:href="#DejaVuSans-49"/>
       <use x="63.623047" xlink:href="#DejaVuSans-55"/>
       <use x="127.246094" xlink:href="#DejaVuSans-46"/>
       <use x="159.033203" xlink:href="#DejaVuSans-53"/>
      </g>
     </g>
    </g>
    <g id="xtick_18">
     <g id="line2d_27">
      <g>
       <use style="stroke:#000000;stroke-width:0.8;" x="795.398397" xlink:href="#m2b05e97825" y="294.118125"/>
      </g>
     </g>
     <g id="text_30">
      <!-- 20.0 -->
      <g transform="translate(784.265584 308.716563)scale(0.1 -0.1)">
       <use xlink:href="#DejaVuSans-50"/>
       <use x="63.623047" xlink:href="#DejaVuSans-48"/>
       <use x="127.246094" xlink:href="#DejaVuSans-46"/>
       <use x="159.033203" xlink:href="#DejaVuSans-48"/>
      </g>
     </g>
    </g>
    <g id="text_31">
     <!-- Local time / h -->
     <g transform="translate(623.833523 322.394687)scale(0.1 -0.1)">
      <use xlink:href="#DejaVuSans-76"/>
      <use x="53.962891" xlink:href="#DejaVuSans-111"/>
      <use x="115.144531" xlink:href="#DejaVuSans-99"/>
      <use x="170.125" xlink:href="#DejaVuSans-97"/>
      <use x="231.404297" xlink:href="#DejaVuSans-108"/>
      <use x="259.1875" xlink:href="#DejaVuSans-32"/>
      <use x="290.974609" xlink:href="#DejaVuSans-116"/>
      <use x="330.183594" xlink:href="#DejaVuSans-105"/>
      <use x="357.966797" xlink:href="#DejaVuSans-109"/>
      <use x="455.378906" xlink:href="#DejaVuSans-101"/>
      <use x="516.902344" xlink:href="#DejaVuSans-32"/>
      <use x="548.689453" xlink:href="#DejaVuSans-47"/>
      <use x="582.380859" xlink:href="#DejaVuSans-32"/>
      <use x="614.167969" xlink:href="#DejaVuSans-104"/>
     </g>
    </g>
   </g>
   <g id="matplotlib.axis_4">
    <g id="ytick_10">
     <g id="line2d_28">
      <g>
       <use style="stroke:#000000;stroke-width:0.8;" x="505.528267" xlink:href="#m60e36dbddc" y="278.12989"/>
      </g>
     </g>
     <g id="text_32">
      <!-- −80 -->
      <g transform="translate(477.42358 281.929108)scale(0.1 -0.1)">
       <use xlink:href="#DejaVuSans-8722"/>
       <use x="83.789062" xlink:href="#DejaVuSans-56"/>
       <use x="147.412109" xlink:href="#DejaVuSans-48"/>
      </g>
     </g>
    </g>
    <g id="ytick_11">
     <g id="line2d_29">
      <g>
       <use style="stroke:#000000;stroke-width:0.8;" x="505.528267" xlink:href="#m60e36dbddc" y="246.153419"/>
      </g>
     </g>
     <g id="text_33">
      <!-- −60 -->
      <g transform="translate(477.42358 249.952638)scale(0.1 -0.1)">
       <use xlink:href="#DejaVuSans-8722"/>
       <use x="83.789062" xlink:href="#DejaVuSans-54"/>
       <use x="147.412109" xlink:href="#DejaVuSans-48"/>
      </g>
     </g>
    </g>
    <g id="ytick_12">
     <g id="line2d_30">
      <g>
       <use style="stroke:#000000;stroke-width:0.8;" x="505.528267" xlink:href="#m60e36dbddc" y="214.176949"/>
      </g>
     </g>
     <g id="text_34">
      <!-- −40 -->
      <g transform="translate(477.42358 217.976167)scale(0.1 -0.1)">
       <use xlink:href="#DejaVuSans-8722"/>
       <use x="83.789062" xlink:href="#DejaVuSans-52"/>
       <use x="147.412109" xlink:href="#DejaVuSans-48"/>
      </g>
     </g>
    </g>
    <g id="ytick_13">
     <g id="line2d_31">
      <g>
       <use style="stroke:#000000;stroke-width:0.8;" x="505.528267" xlink:href="#m60e36dbddc" y="182.200478"/>
      </g>
     </g>
     <g id="text_35">
      <!-- −20 -->
      <g transform="translate(477.42358 185.999697)scale(0.1 -0.1)">
       <use xlink:href="#DejaVuSans-8722"/>
       <use x="83.789062" xlink:href="#DejaVuSans-50"/>
       <use x="147.412109" xlink:href="#DejaVuSans-48"/>
      </g>
     </g>
    </g>
    <g id="ytick_14">
     <g id="line2d_32">
      <g>
       <use style="stroke:#000000;stroke-width:0.8;" x="505.528267" xlink:href="#m60e36dbddc" y="150.224007"/>
      </g>
     </g>
     <g id="text_36">
      <!-- 0 -->
      <g transform="translate(492.165767 154.023226)scale(0.1 -0.1)">
       <use xlink:href="#DejaVuSans-48"/>
      </g>
     </g>
    </g>
    <g id="ytick_15">
     <g id="line2d_33">
      <g>
       <use style="stroke:#000000;stroke-width:0.8;" x="505.528267" xlink:href="#m60e36dbddc" y="118.247537"/>
      </g>
     </g>
     <g id="text_37">
      <!-- 20 -->
      <g transform="translate(485.803267 122.046756)scale(0.1 -0.1)">
       <use xlink:href="#DejaVuSans-50"/>
       <use x="63.623047" xlink:href="#DejaVuSans-48"/>
      </g>
     </g>
    </g>
    <g id="ytick_16">
     <g id="line2d_34">
      <g>
       <use style="stroke:#000000;stroke-width:0.8;" x="505.528267" xlink:href="#m60e36dbddc" y="86.271066"/>
      </g>
     </g>
     <g id="text_38">
      <!-- 40 -->
      <g transform="translate(485.803267 90.070285)scale(0.1 -0.1)">
       <use xlink:href="#DejaVuSans-52"/>
       <use x="63.623047" xlink:href="#DejaVuSans-48"/>
      </g>
     </g>
    </g>
    <g id="ytick_17">
     <g id="line2d_35">
      <g>
       <use style="stroke:#000000;stroke-width:0.8;" x="505.528267" xlink:href="#m60e36dbddc" y="54.294596"/>
      </g>
     </g>
     <g id="text_39">
      <!-- 60 -->
      <g transform="translate(485.803267 58.093814)scale(0.1 -0.1)">
       <use xlink:href="#DejaVuSans-54"/>
       <use x="63.623047" xlink:href="#DejaVuSans-48"/>
      </g>
     </g>
    </g>
    <g id="ytick_18">
     <g id="line2d_36">
      <g>
       <use style="stroke:#000000;stroke-width:0.8;" x="505.528267" xlink:href="#m60e36dbddc" y="22.318125"/>
      </g>
     </g>
     <g id="text_40">
      <!-- 80 -->
      <g transform="translate(485.803267 26.117344)scale(0.1 -0.1)">
       <use xlink:href="#DejaVuSans-56"/>
       <use x="63.623047" xlink:href="#DejaVuSans-48"/>
      </g>
     </g>
    </g>
    <g id="text_41">
     <!-- Latitude / deg -->
     <g transform="translate(471.343892 193.084531)rotate(-90)scale(0.1 -0.1)">
      <use xlink:href="#DejaVuSans-76"/>
      <use x="55.712891" xlink:href="#DejaVuSans-97"/>
      <use x="116.992188" xlink:href="#DejaVuSans-116"/>
      <use x="156.201172" xlink:href="#DejaVuSans-105"/>
      <use x="183.984375" xlink:href="#DejaVuSans-116"/>
      <use x="223.193359" xlink:href="#DejaVuSans-117"/>
      <use x="286.572266" xlink:href="#DejaVuSans-100"/>
      <use x="350.048828" xlink:href="#DejaVuSans-101"/>
      <use x="411.572266" xlink:href="#DejaVuSans-32"/>
      <use x="443.359375" xlink:href="#DejaVuSans-47"/>
      <use x="477.050781" xlink:href="#DejaVuSans-32"/>
      <use x="508.837891" xlink:href="#DejaVuSans-100"/>
      <use x="572.314453" xlink:href="#DejaVuSans-101"/>
      <use x="633.837891" xlink:href="#DejaVuSans-103"/>
     </g>
    </g>
   </g>
   <g id="patch_8">
    <path d="M 505.528267 294.118125 
L 505.528267 22.318125 
" style="fill:none;stroke:#000000;stroke-linecap:square;stroke-linejoin:miter;stroke-width:0.8;"/>
   </g>
   <g id="patch_9">
    <path d="M 809.891903 294.118125 
L 809.891903 22.318125 
" style="fill:none;stroke:#000000;stroke-linecap:square;stroke-linejoin:miter;stroke-width:0.8;"/>
   </g>
   <g id="patch_10">
    <path d="M 505.528267 294.118125 
L 809.891903 294.118125 
" style="fill:none;stroke:#000000;stroke-linecap:square;stroke-linejoin:miter;stroke-width:0.8;"/>
   </g>
   <g id="patch_11">
    <path d="M 505.528267 22.318125 
L 809.891903 22.318125 
" style="fill:none;stroke:#000000;stroke-linecap:square;stroke-linejoin:miter;stroke-width:0.8;"/>
   </g>
   <g id="text_42">
    <!-- Temperature / K -->
    <g transform="translate(609.93696 16.318125)scale(0.12 -0.12)">
     <defs>
      <path d="M -0.296875 72.90625 
L 61.375 72.90625 
L 61.375 64.59375 
L 35.5 64.59375 
L 35.5 0 
L 25.59375 0 
L 25.59375 64.59375 
L -0.296875 64.59375 
z
" id="DejaVuSans-84"/>
      <path d="M 18.109375 8.203125 
L 18.109375 -20.796875 
L 9.078125 -20.796875 
L 9.078125 54.6875 
L 18.109375 54.6875 
L 18.109375 46.390625 
Q 20.953125 51.265625 25.265625 53.625 
Q 29.59375 56 35.59375 56 
Q 45.5625 56 51.78125 48.09375 
Q 58.015625 40.1875 58.015625 27.296875 
Q 58.015625 14.40625 51.78125 6.484375 
Q 45.5625 -1.421875 35.59375 -1.421875 
Q 29.59375 -1.421875 25.265625 0.953125 
Q 20.953125 3.328125 18.109375 8.203125 
z
M 48.6875 27.296875 
Q 48.6875 37.203125 44.609375 42.84375 
Q 40.53125 48.484375 33.40625 48.484375 
Q 26.265625 48.484375 22.1875 42.84375 
Q 18.109375 37.203125 18.109375 27.296875 
Q 18.109375 17.390625 22.1875 11.75 
Q 26.265625 6.109375 33.40625 6.109375 
Q 40.53125 6.109375 44.609375 11.75 
Q 48.6875 17.390625 48.6875 27.296875 
z
" id="DejaVuSans-112"/>
      <path d="M 41.109375 46.296875 
Q 39.59375 47.171875 37.8125 47.578125 
Q 36.03125 48 33.890625 48 
Q 26.265625 48 22.1875 43.046875 
Q 18.109375 38.09375 18.109375 28.8125 
L 18.109375 0 
L 9.078125 0 
L 9.078125 54.6875 
L 18.109375 54.6875 
L 18.109375 46.1875 
Q 20.953125 51.171875 25.484375 53.578125 
Q 30.03125 56 36.53125 56 
Q 37.453125 56 38.578125 55.875 
Q 39.703125 55.765625 41.0625 55.515625 
z
" id="DejaVuSans-114"/>
      <path d="M 9.8125 72.90625 
L 19.671875 72.90625 
L 19.671875 42.09375 
L 52.390625 72.90625 
L 65.09375 72.90625 
L 28.90625 38.921875 
L 67.671875 0 
L 54.6875 0 
L 19.671875 35.109375 
L 19.671875 0 
L 9.8125 0 
z
" id="DejaVuSans-75"/>
     </defs>
     <use xlink:href="#DejaVuSans-84"/>
     <use x="44.083984" xlink:href="#DejaVuSans-101"/>
     <use x="105.607422" xlink:href="#DejaVuSans-109"/>
     <use x="203.019531" xlink:href="#DejaVuSans-112"/>
     <use x="266.496094" xlink:href="#DejaVuSans-101"/>
     <use x="328.019531" xlink:href="#DejaVuSans-114"/>
     <use x="369.132812" xlink:href="#DejaVuSans-97"/>
     <use x="430.412109" xlink:href="#DejaVuSans-116"/>
     <use x="469.621094" xlink:href="#DejaVuSans-117"/>
     <use x="533" xlink:href="#DejaVuSans-114"/>
     <use x="571.863281" xlink:href="#DejaVuSans-101"/>
     <use x="633.386719" xlink:href="#DejaVuSans-32"/>
     <use x="665.173828" xlink:href="#DejaVuSans-47"/>
     <use x="698.865234" xlink:href="#DejaVuSans-32"/>
     <use x="730.652344" xlink:href="#DejaVuSans-75"/>
    </g>
   </g>
  </g>
  <g id="axes_3">
   <g id="patch_12">
    <path clip-path="url(#p4e8eea3faf)" d="M 372.369176 294.118125 
L 372.369176 263.918125 
L 372.369176 52.518125 
L 372.369176 22.318125 
L 385.959176 22.318125 
L 385.959176 52.518125 
L 385.959176 263.918125 
L 385.959176 294.118125 
z
" style="fill:#ffffff;stroke:#ffffff;stroke-linejoin:miter;stroke-width:0.01;"/>
   </g>
   <g id="QuadMesh_1">
    <path clip-path="url(#p4e8eea3faf)" d="M 372.369176 294.118125 
L 385.959176 294.118125 
L 385.959176 263.918125 
L 372.369176 263.918125 
L 372.369176 294.118125 
" style="fill:#481668;"/>
    <path clip-path="url(#p4e8eea3faf)" d="M 372.369176 263.918125 
L 385.959176 263.918125 
L 385.959176 233.718125 
L 372.369176 233.718125 
L 372.369176 263.918125 
" style="fill:#443983;"/>
    <path clip-path="url(#p4e8eea3faf)" d="M 372.369176 233.718125 
L 385.959176 233.718125 
L 385.959176 203.518125 
L 372.369176 203.518125 
L 372.369176 233.718125 
" style="fill:#375a8c;"/>
    <path clip-path="url(#p4e8eea3faf)" d="M 372.369176 203.518125 
L 385.959176 203.518125 
L 385.959176 173.318125 
L 372.369176 173.318125 
L 372.369176 203.518125 
" style="fill:#2b758e;"/>
    <path clip-path="url(#p4e8eea3faf)" d="M 372.369176 173.318125 
L 385.959176 173.318125 
L 385.959176 143.118125 
L 372.369176 143.118125 
L 372.369176 173.318125 
" style="fill:#21908d;"/>
    <path clip-path="url(#p4e8eea3faf)" d="M 372.369176 143.118125 
L 385.959176 143.118125 
L 385.959176 112.918125 
L 372.369176 112.918125 
L 372.369176 143.118125 
" style="fill:#25ab82;"/>
    <path clip-path="url(#p4e8eea3faf)" d="M 372.369176 112.918125 
L 385.959176 112.918125 
L 385.959176 82.718125 
L 372.369176 82.718125 
L 372.369176 112.918125 
" style="fill:#4ec36b;"/>
    <path clip-path="url(#p4e8eea3faf)" d="M 372.369176 82.718125 
L 385.959176 82.718125 
L 385.959176 52.518125 
L 372.369176 52.518125 
L 372.369176 82.718125 
" style="fill:#90d743;"/>
    <path clip-path="url(#p4e8eea3faf)" d="M 372.369176 52.518125 
L 385.959176 52.518125 
L 385.959176 22.318125 
L 372.369176 22.318125 
L 372.369176 52.518125 
" style="fill:#dae319;"/>
   </g>
   <g id="matplotlib.axis_5"/>
   <g id="matplotlib.axis_6">
    <g id="ytick_19">
     <g id="line2d_37">
      <defs>
       <path d="M 0 0 
L 3.5 0 
" id="m40b1a46d52" style="stroke:#000000;stroke-width:0.8;"/>
      </defs>
      <g>
       <use style="stroke:#000000;stroke-width:0.8;" x="385.959176" xlink:href="#m40b1a46d52" y="294.118125"/>
      </g>
     </g>
     <g id="text_43">
      <!-- 0.66 -->
      <g transform="translate(392.959176 297.917344)scale(0.1 -0.1)">
       <use xlink:href="#DejaVuSans-48"/>
       <use x="63.623047" xlink:href="#DejaVuSans-46"/>
       <use x="95.410156" xlink:href="#DejaVuSans-54"/>
       <use x="159.033203" xlink:href="#DejaVuSans-54"/>
      </g>
     </g>
    </g>
    <g id="ytick_20">
     <g id="line2d_38">
      <g>
       <use style="stroke:#000000;stroke-width:0.8;" x="385.959176" xlink:href="#m40b1a46d52" y="263.918125"/>
      </g>
     </g>
     <g id="text_44">
      <!-- 0.72 -->
      <g transform="translate(392.959176 267.717344)scale(0.1 -0.1)">
       <use xlink:href="#DejaVuSans-48"/>
       <use x="63.623047" xlink:href="#DejaVuSans-46"/>
       <use x="95.410156" xlink:href="#DejaVuSans-55"/>
       <use x="159.033203" xlink:href="#DejaVuSans-50"/>
      </g>
     </g>
    </g>
    <g id="ytick_21">
     <g id="line2d_39">
      <g>
       <use style="stroke:#000000;stroke-width:0.8;" x="385.959176" xlink:href="#m40b1a46d52" y="233.718125"/>
      </g>
     </g>
     <g id="text_45">
      <!-- 0.78 -->
      <g transform="translate(392.959176 237.517344)scale(0.1 -0.1)">
       <use xlink:href="#DejaVuSans-48"/>
       <use x="63.623047" xlink:href="#DejaVuSans-46"/>
       <use x="95.410156" xlink:href="#DejaVuSans-55"/>
       <use x="159.033203" xlink:href="#DejaVuSans-56"/>
      </g>
     </g>
    </g>
    <g id="ytick_22">
     <g id="line2d_40">
      <g>
       <use style="stroke:#000000;stroke-width:0.8;" x="385.959176" xlink:href="#m40b1a46d52" y="203.518125"/>
      </g>
     </g>
     <g id="text_46">
      <!-- 0.84 -->
      <g transform="translate(392.959176 207.317344)scale(0.1 -0.1)">
       <use xlink:href="#DejaVuSans-48"/>
       <use x="63.623047" xlink:href="#DejaVuSans-46"/>
       <use x="95.410156" xlink:href="#DejaVuSans-56"/>
       <use x="159.033203" xlink:href="#DejaVuSans-52"/>
      </g>
     </g>
    </g>
    <g id="ytick_23">
     <g id="line2d_41">
      <g>
       <use style="stroke:#000000;stroke-width:0.8;" x="385.959176" xlink:href="#m40b1a46d52" y="173.318125"/>
      </g>
     </g>
     <g id="text_47">
      <!-- 0.90 -->
      <g transform="translate(392.959176 177.117344)scale(0.1 -0.1)">
       <defs>
        <path d="M 10.984375 1.515625 
L 10.984375 10.5 
Q 14.703125 8.734375 18.5 7.8125 
Q 22.3125 6.890625 25.984375 6.890625 
Q 35.75 6.890625 40.890625 13.453125 
Q 46.046875 20.015625 46.78125 33.40625 
Q 43.953125 29.203125 39.59375 26.953125 
Q 35.25 24.703125 29.984375 24.703125 
Q 19.046875 24.703125 12.671875 31.3125 
Q 6.296875 37.9375 6.296875 49.421875 
Q 6.296875 60.640625 12.9375 67.421875 
Q 19.578125 74.21875 30.609375 74.21875 
Q 43.265625 74.21875 49.921875 64.515625 
Q 56.59375 54.828125 56.59375 36.375 
Q 56.59375 19.140625 48.40625 8.859375 
Q 40.234375 -1.421875 26.421875 -1.421875 
Q 22.703125 -1.421875 18.890625 -0.6875 
Q 15.09375 0.046875 10.984375 1.515625 
z
M 30.609375 32.421875 
Q 37.25 32.421875 41.125 36.953125 
Q 45.015625 41.5 45.015625 49.421875 
Q 45.015625 57.28125 41.125 61.84375 
Q 37.25 66.40625 30.609375 66.40625 
Q 23.96875 66.40625 20.09375 61.84375 
Q 16.21875 57.28125 16.21875 49.421875 
Q 16.21875 41.5 20.09375 36.953125 
Q 23.96875 32.421875 30.609375 32.421875 
z
" id="DejaVuSans-57"/>
       </defs>
       <use xlink:href="#DejaVuSans-48"/>
       <use x="63.623047" xlink:href="#DejaVuSans-46"/>
       <use x="95.410156" xlink:href="#DejaVuSans-57"/>
       <use x="159.033203" xlink:href="#DejaVuSans-48"/>
      </g>
     </g>
    </g>
    <g id="ytick_24">
     <g id="line2d_42">
      <g>
       <use style="stroke:#000000;stroke-width:0.8;" x="385.959176" xlink:href="#m40b1a46d52" y="143.118125"/>
      </g>
     </g>
     <g id="text_48">
      <!-- 0.96 -->
      <g transform="translate(392.959176 146.917344)scale(0.1 -0.1)">
       <use xlink:href="#DejaVuSans-48"/>
       <use x="63.623047" xlink:href="#DejaVuSans-46"/>
       <use x="95.410156" xlink:href="#DejaVuSans-57"/>
       <use x="159.033203" xlink:href="#DejaVuSans-54"/>
      </g>
     </g>
    </g>
    <g id="ytick_25">
     <g id="line2d_43">
      <g>
       <use style="stroke:#000000;stroke-width:0.8;" x="385.959176" xlink:href="#m40b1a46d52" y="112.918125"/>
      </g>
     </g>
     <g id="text_49">
      <!-- 1.02 -->
      <g transform="translate(392.959176 116.717344)scale(0.1 -0.1)">
       <use xlink:href="#DejaVuSans-49"/>
       <use x="63.623047" xlink:href="#DejaVuSans-46"/>
       <use x="95.410156" xlink:href="#DejaVuSans-48"/>
       <use x="159.033203" xlink:href="#DejaVuSans-50"/>
      </g>
     </g>
    </g>
    <g id="ytick_26">
     <g id="line2d_44">
      <g>
       <use style="stroke:#000000;stroke-width:0.8;" x="385.959176" xlink:href="#m40b1a46d52" y="82.718125"/>
      </g>
     </g>
     <g id="text_50">
      <!-- 1.08 -->
      <g transform="translate(392.959176 86.517344)scale(0.1 -0.1)">
       <use xlink:href="#DejaVuSans-49"/>
       <use x="63.623047" xlink:href="#DejaVuSans-46"/>
       <use x="95.410156" xlink:href="#DejaVuSans-48"/>
       <use x="159.033203" xlink:href="#DejaVuSans-56"/>
      </g>
     </g>
    </g>
    <g id="ytick_27">
     <g id="line2d_45">
      <g>
       <use style="stroke:#000000;stroke-width:0.8;" x="385.959176" xlink:href="#m40b1a46d52" y="52.518125"/>
      </g>
     </g>
     <g id="text_51">
      <!-- 1.14 -->
      <g transform="translate(392.959176 56.317344)scale(0.1 -0.1)">
       <use xlink:href="#DejaVuSans-49"/>
       <use x="63.623047" xlink:href="#DejaVuSans-46"/>
       <use x="95.410156" xlink:href="#DejaVuSans-49"/>
       <use x="159.033203" xlink:href="#DejaVuSans-52"/>
      </g>
     </g>
    </g>
    <g id="ytick_28">
     <g id="line2d_46">
      <g>
       <use style="stroke:#000000;stroke-width:0.8;" x="385.959176" xlink:href="#m40b1a46d52" y="22.318125"/>
      </g>
     </g>
     <g id="text_52">
      <!-- 1.20 -->
      <g transform="translate(392.959176 26.117344)scale(0.1 -0.1)">
       <use xlink:href="#DejaVuSans-49"/>
       <use x="63.623047" xlink:href="#DejaVuSans-46"/>
       <use x="95.410156" xlink:href="#DejaVuSans-50"/>
       <use x="159.033203" xlink:href="#DejaVuSans-48"/>
      </g>
     </g>
    </g>
    <g id="text_53">
     <!-- 1e−12 -->
     <g transform="translate(352.338864 19.318125)scale(0.1 -0.1)">
      <use xlink:href="#DejaVuSans-49"/>
      <use x="63.623047" xlink:href="#DejaVuSans-101"/>
      <use x="125.146484" xlink:href="#DejaVuSans-8722"/>
      <use x="208.935547" xlink:href="#DejaVuSans-49"/>
      <use x="272.558594" xlink:href="#DejaVuSans-50"/>
     </g>
    </g>
   </g>
   <g id="patch_13">
    <path d="M 372.369176 294.118125 
L 372.369176 263.918125 
L 372.369176 52.518125 
L 372.369176 22.318125 
L 385.959176 22.318125 
L 385.959176 52.518125 
L 385.959176 263.918125 
L 385.959176 294.118125 
z
" style="fill:none;stroke:#000000;stroke-linejoin:miter;stroke-width:0.8;"/>
   </g>
  </g>
  <g id="axes_4">
   <g id="patch_14">
    <path clip-path="url(#pf28b3bdce3)" d="M 828.914631 294.118125 
L 828.914631 263.918125 
L 828.914631 52.518125 
L 828.914631 22.318125 
L 842.504631 22.318125 
L 842.504631 52.518125 
L 842.504631 263.918125 
L 842.504631 294.118125 
z
" style="fill:#ffffff;stroke:#ffffff;stroke-linejoin:miter;stroke-width:0.01;"/>
   </g>
   <g id="QuadMesh_2">
    <path clip-path="url(#pf28b3bdce3)" d="M 828.914631 294.118125 
L 842.504631 294.118125 
L 842.504631 263.918125 
L 828.914631 263.918125 
L 828.914631 294.118125 
" style="fill:#481668;"/>
    <path clip-path="url(#pf28b3bdce3)" d="M 828.914631 263.918125 
L 842.504631 263.918125 
L 842.504631 233.718125 
L 828.914631 233.718125 
L 828.914631 263.918125 
" style="fill:#443983;"/>
    <path clip-path="url(#pf28b3bdce3)" d="M 828.914631 233.718125 
L 842.504631 233.718125 
L 842.504631 203.518125 
L 828.914631 203.518125 
L 828.914631 233.718125 
" style="fill:#375a8c;"/>
    <path clip-path="url(#pf28b3bdce3)" d="M 828.914631 203.518125 
L 842.504631 203.518125 
L 842.504631 173.318125 
L 828.914631 173.318125 
L 828.914631 203.518125 
" style="fill:#2b758e;"/>
    <path clip-path="url(#pf28b3bdce3)" d="M 828.914631 173.318125 
L 842.504631 173.318125 
L 842.504631 143.118125 
L 828.914631 143.118125 
L 828.914631 173.318125 
" style="fill:#21918c;"/>
    <path clip-path="url(#pf28b3bdce3)" d="M 828.914631 143.118125 
L 842.504631 143.118125 
L 842.504631 112.918125 
L 828.914631 112.918125 
L 828.914631 143.118125 
" style="fill:#25ab82;"/>
    <path clip-path="url(#pf28b3bdce3)" d="M 828.914631 112.918125 
L 842.504631 112.918125 
L 842.504631 82.718125 
L 828.914631 82.718125 
L 828.914631 112.918125 
" style="fill:#4ec36b;"/>
    <path clip-path="url(#pf28b3bdce3)" d="M 828.914631 82.718125 
L 842.504631 82.718125 
L 842.504631 52.518125 
L 828.914631 52.518125 
L 828.914631 82.718125 
" style="fill:#90d743;"/>
    <path clip-path="url(#pf28b3bdce3)" d="M 828.914631 52.518125 
L 842.504631 52.518125 
L 842.504631 22.318125 
L 828.914631 22.318125 
L 828.914631 52.518125 
" style="fill:#dae319;"/>
   </g>
   <g id="matplotlib.axis_7"/>
   <g id="matplotlib.axis_8">
    <g id="ytick_29">
     <g id="line2d_47">
      <g>
       <use style="stroke:#000000;stroke-width:0.8;" x="842.504631" xlink:href="#m40b1a46d52" y="294.118125"/>
      </g>
     </g>
     <g id="text_54">
      <!-- 525 -->
      <g transform="translate(849.504631 297.917344)scale(0.1 -0.1)">
       <use xlink:href="#DejaVuSans-53"/>
       <use x="63.623047" xlink:href="#DejaVuSans-50"/>
       <use x="127.246094" xlink:href="#DejaVuSans-53"/>
      </g>
     </g>
    </g>
    <g id="ytick_30">
     <g id="line2d_48">
      <g>
       <use style="stroke:#000000;stroke-width:0.8;" x="842.504631" xlink:href="#m40b1a46d52" y="263.918125"/>
      </g>
     </g>
     <g id="text_55">
      <!-- 550 -->
      <g transform="translate(849.504631 267.717344)scale(0.1 -0.1)">
       <use xlink:href="#DejaVuSans-53"/>
       <use x="63.623047" xlink:href="#DejaVuSans-53"/>
       <use x="127.246094" xlink:href="#DejaVuSans-48"/>
      </g>
     </g>
    </g>
    <g id="ytick_31">
     <g id="line2d_49">
      <g>
       <use style="stroke:#000000;stroke-width:0.8;" x="842.504631" xlink:href="#m40b1a46d52" y="233.718125"/>
      </g>
     </g>
     <g id="text_56">
      <!-- 575 -->
      <g transform="translate(849.504631 237.517344)scale(0.1 -0.1)">
       <use xlink:href="#DejaVuSans-53"/>
       <use x="63.623047" xlink:href="#DejaVuSans-55"/>
       <use x="127.246094" xlink:href="#DejaVuSans-53"/>
      </g>
     </g>
    </g>
    <g id="ytick_32">
     <g id="line2d_50">
      <g>
       <use style="stroke:#000000;stroke-width:0.8;" x="842.504631" xlink:href="#m40b1a46d52" y="203.518125"/>
      </g>
     </g>
     <g id="text_57">
      <!-- 600 -->
      <g transform="translate(849.504631 207.317344)scale(0.1 -0.1)">
       <use xlink:href="#DejaVuSans-54"/>
       <use x="63.623047" xlink:href="#DejaVuSans-48"/>
       <use x="127.246094" xlink:href="#DejaVuSans-48"/>
      </g>
     </g>
    </g>
    <g id="ytick_33">
     <g id="line2d_51">
      <g>
       <use style="stroke:#000000;stroke-width:0.8;" x="842.504631" xlink:href="#m40b1a46d52" y="173.318125"/>
      </g>
     </g>
     <g id="text_58">
      <!-- 625 -->
      <g transform="translate(849.504631 177.117344)scale(0.1 -0.1)">
       <use xlink:href="#DejaVuSans-54"/>
       <use x="63.623047" xlink:href="#DejaVuSans-50"/>
       <use x="127.246094" xlink:href="#DejaVuSans-53"/>
      </g>
     </g>
    </g>
    <g id="ytick_34">
     <g id="line2d_52">
      <g>
       <use style="stroke:#000000;stroke-width:0.8;" x="842.504631" xlink:href="#m40b1a46d52" y="143.118125"/>
      </g>
     </g>
     <g id="text_59">
      <!-- 650 -->
      <g transform="translate(849.504631 146.917344)scale(0.1 -0.1)">
       <use xlink:href="#DejaVuSans-54"/>
       <use x="63.623047" xlink:href="#DejaVuSans-53"/>
       <use x="127.246094" xlink:href="#DejaVuSans-48"/>
      </g>
     </g>
    </g>
    <g id="ytick_35">
     <g id="line2d_53">
      <g>
       <use style="stroke:#000000;stroke-width:0.8;" x="842.504631" xlink:href="#m40b1a46d52" y="112.918125"/>
      </g>
     </g>
     <g id="text_60">
      <!-- 675 -->
      <g transform="translate(849.504631 116.717344)scale(0.1 -0.1)">
       <use xlink:href="#DejaVuSans-54"/>
       <use x="63.623047" xlink:href="#DejaVuSans-55"/>
       <use x="127.246094" xlink:href="#DejaVuSans-53"/>
      </g>
     </g>
    </g>
    <g id="ytick_36">
     <g id="line2d_54">
      <g>
       <use style="stroke:#000000;stroke-width:0.8;" x="842.504631" xlink:href="#m40b1a46d52" y="82.718125"/>
      </g>
     </g>
     <g id="text_61">
      <!-- 700 -->
      <g transform="translate(849.504631 86.517344)scale(0.1 -0.1)">
       <use xlink:href="#DejaVuSans-55"/>
       <use x="63.623047" xlink:href="#DejaVuSans-48"/>
       <use x="127.246094" xlink:href="#DejaVuSans-48"/>
      </g>
     </g>
    </g>
    <g id="ytick_37">
     <g id="line2d_55">
      <g>
       <use style="stroke:#000000;stroke-width:0.8;" x="842.504631" xlink:href="#m40b1a46d52" y="52.518125"/>
      </g>
     </g>
     <g id="text_62">
      <!-- 725 -->
      <g transform="translate(849.504631 56.317344)scale(0.1 -0.1)">
       <use xlink:href="#DejaVuSans-55"/>
       <use x="63.623047" xlink:href="#DejaVuSans-50"/>
       <use x="127.246094" xlink:href="#DejaVuSans-53"/>
      </g>
     </g>
    </g>
    <g id="ytick_38">
     <g id="line2d_56">
      <g>
       <use style="stroke:#000000;stroke-width:0.8;" x="842.504631" xlink:href="#m40b1a46d52" y="22.318125"/>
      </g>
     </g>
     <g id="text_63">
      <!-- 750 -->
      <g transform="translate(849.504631 26.117344)scale(0.1 -0.1)">
       <use xlink:href="#DejaVuSans-55"/>
       <use x="63.623047" xlink:href="#DejaVuSans-53"/>
       <use x="127.246094" xlink:href="#DejaVuSans-48"/>
      </g>
     </g>
    </g>
   </g>
   <g id="patch_15">
    <path d="M 828.914631 294.118125 
L 828.914631 263.918125 
L 828.914631 52.518125 
L 828.914631 22.318125 
L 842.504631 22.318125 
L 842.504631 52.518125 
L 842.504631 263.918125 
L 842.504631 294.118125 
z
" style="fill:none;stroke:#000000;stroke-linejoin:miter;stroke-width:0.8;"/>
   </g>
  </g>
 </g>
 <defs>
  <clipPath id="p0579b43ffe">
   <rect height="271.8" width="304.363636" x="48.982813" y="22.318125"/>
  </clipPath>
  <clipPath id="p62a02ef07f">
   <rect height="271.8" width="304.363636" x="505.528267" y="22.318125"/>
  </clipPath>
  <clipPath id="p4e8eea3faf">
   <rect height="271.8" width="13.59" x="372.369176" y="22.318125"/>
  </clipPath>
  <clipPath id="pf28b3bdce3">
   <rect height="271.8" width="13.59" x="828.914631" y="22.318125"/>
  </clipPath>
 </defs>
</svg>
