<?xml version="1.0" encoding="utf-8" standalone="no"?>
<!DOCTYPE svg PUBLIC "-//W3C//DTD SVG 1.1//EN"
  "http://www.w3.org/Graphics/SVG/1.1/DTD/svg11.dtd">
<!-- Created with matplotlib (https://matplotlib.org/) -->
<svg height="331.674375pt" version="1.1" viewBox="0 0 869.429631 331.674375" width="869.429631pt" xmlns="http://www.w3.org/2000/svg" xmlns:xlink="http://www.w3.org/1999/xlink">
 <metadata>
  <rdf:RDF xmlns:cc="http://creativecommons.org/ns#" xmlns:dc="http://purl.org/dc/elements/1.1/" xmlns:rdf="http://www.w3.org/1999/02/22-rdf-syntax-ns#">
   <cc:Work>
    <dc:type rdf:resource="http://purl.org/dc/dcmitype/StillImage"/>
    <dc:date>2021-04-28T13:42:37.939692</dc:date>
    <dc:format>image/svg+xml</dc:format>
    <dc:creator>
     <cc:Agent>
      <dc:title>Matplotlib v3.3.4, https://matplotlib.org/</dc:title>
     </cc:Agent>
    </dc:creator>
   </cc:Work>
  </rdf:RDF>
 </metadata>
 <defs>
  <style type="text/css">*{stroke-linecap:butt;stroke-linejoin:round;}</style>
 </defs>
 <g id="figure_1">
  <g id="patch_1">
   <path d="M 0 331.674375 
L 869.429631 331.674375 
L 869.429631 0 
L 0 0 
z
" style="fill:none;"/>
  </g>
  <g id="axes_1">
   <g id="patch_2">
    <path d="M 48.982813 294.118125 
L 353.346449 294.118125 
L 353.346449 22.318125 
L 48.982813 22.318125 
z
" style="fill:#ffffff;"/>
   </g>
   <g id="PathCollection_1">
    <path clip-path="url(#p1e115ee4d0)" d="M 309.865929 294.118125 
L 315.296905 292.121099 
L 309.865929 292.628737 
L 266.38541 286.214663 
L 266.38541 294.118125 
z
" style="fill:#481b6d;"/>
    <path clip-path="url(#p1e115ee4d0)" d="M 92.463332 278.12989 
L 92.463332 271.933026 
L 66.248344 278.12989 
z
" style="fill:#481b6d;"/>
   </g>
   <g id="PathCollection_2">
    <path clip-path="url(#p1e115ee4d0)" d="M 309.865929 292.628737 
L 315.296905 292.121099 
L 353.346449 278.12989 
L 353.346449 262.141654 
L 353.346449 260.98656 
L 309.865929 256.186007 
L 266.38541 261.341954 
L 222.90489 257.586644 
L 201.713185 254.349246 
L 222.90489 262.141654 
L 266.38541 278.12989 
L 266.38541 286.214663 
z
M 291.277828 278.12989 
L 309.865929 272.486914 
L 343.590521 278.12989 
L 309.865929 281.282153 
z
" style="fill:#3f4788;"/>
    <path clip-path="url(#p1e115ee4d0)" d="M 92.463332 271.933026 
L 92.463332 262.141654 
L 135.943851 246.153419 
L 141.879339 246.153419 
L 135.943851 245.613416 
L 133.567132 246.153419 
L 92.463332 257.149988 
L 48.982813 260.415352 
L 48.982813 262.141654 
L 48.982813 278.12989 
L 66.248344 278.12989 
z
" style="fill:#3f4788;"/>
   </g>
   <g id="PathCollection_3">
    <path clip-path="url(#p1e115ee4d0)" d="M 309.865929 281.282153 
L 343.590521 278.12989 
L 309.865929 272.486914 
L 291.277828 278.12989 
z
" style="fill:#2e6e8e;"/>
    <path clip-path="url(#p1e115ee4d0)" d="M 92.463332 257.149988 
L 133.567132 246.153419 
L 135.943851 245.613416 
L 141.879339 246.153419 
L 179.424371 246.153419 
L 201.713185 254.349246 
L 222.90489 257.586644 
L 266.38541 261.341954 
L 309.865929 256.186007 
L 353.346449 260.98656 
L 353.346449 251.931372 
L 317.781924 246.153419 
L 309.865929 244.736231 
L 272.896487 246.153419 
L 266.38541 246.524067 
L 222.90489 247.256361 
L 215.685138 246.153419 
L 179.424371 239.852083 
L 135.943851 238.248051 
L 101.149916 246.153419 
L 92.463332 248.477355 
L 48.982813 246.521151 
L 48.982813 260.415352 
z
" style="fill:#2e6e8e;"/>
    <path clip-path="url(#p1e115ee4d0)" d="M 266.38541 202.247169 
L 281.150804 198.188713 
L 309.865929 186.759406 
L 324.575783 182.200478 
L 309.865929 182.200478 
L 266.38541 198.188713 
L 246.15195 205.628765 
z
" style="fill:#2e6e8e;"/>
    <path clip-path="url(#p1e115ee4d0)" d="M 309.865929 134.235772 
L 353.346449 134.235772 
L 353.346449 132.451992 
L 309.865929 133.683537 
L 271.387356 118.247537 
L 266.38541 116.469666 
L 261.818355 116.568184 
L 266.38541 118.247537 
z
" style="fill:#2e6e8e;"/>
   </g>
   <g id="PathCollection_4">
    <path clip-path="url(#p1e115ee4d0)" d="M 92.463332 248.477355 
L 101.149916 246.153419 
L 135.943851 238.248051 
L 179.424371 239.852083 
L 215.685138 246.153419 
L 222.90489 247.256361 
L 266.38541 246.524067 
L 272.896487 246.153419 
L 309.865929 244.736231 
L 317.781924 246.153419 
L 353.346449 251.931372 
L 353.346449 246.153419 
L 353.346449 240.455738 
L 309.865929 234.757793 
L 266.38541 235.815799 
L 227.494356 230.165184 
L 253.232109 214.176949 
L 266.38541 211.978652 
L 309.865929 201.291633 
L 319.006095 198.188713 
L 353.346449 187.651599 
L 353.346449 182.200478 
L 324.575783 182.200478 
L 309.865929 186.759406 
L 281.150804 198.188713 
L 266.38541 202.247169 
L 246.15195 205.628765 
L 222.90489 214.176949 
L 179.424371 214.176949 
L 150.134198 214.176949 
L 151.454965 230.165184 
L 135.943851 230.882687 
L 92.463332 238.546808 
L 48.982813 238.891966 
L 48.982813 246.153419 
L 48.982813 246.521151 
z
" style="fill:#21918c;"/>
    <path clip-path="url(#p1e115ee4d0)" d="M 309.865929 133.683537 
L 353.346449 132.451992 
L 353.346449 118.247537 
L 353.346449 113.68731 
L 309.865929 114.794268 
L 275.176953 102.259301 
L 266.38541 98.976527 
L 222.90489 100.277999 
L 209.0899 102.259301 
L 222.90489 102.259301 
L 261.818355 116.568184 
L 266.38541 116.469666 
L 271.387356 118.247537 
z
" style="fill:#21918c;"/>
    <path clip-path="url(#p1e115ee4d0)" d="M 48.982813 118.247537 
L 77.589195 107.728675 
L 48.982813 105.935592 
z
" style="fill:#21918c;"/>
    <path clip-path="url(#p1e115ee4d0)" d="M 135.943851 102.259301 
L 139.543111 102.259301 
L 135.943851 99.047576 
L 131.560885 102.259301 
z
" style="fill:#21918c;"/>
    <path clip-path="url(#p1e115ee4d0)" d="M 179.424371 40.829497 
L 185.132449 38.30636 
L 179.424371 38.30636 
L 153.385841 38.30636 
z
" style="fill:#21918c;"/>
    <path clip-path="url(#p1e115ee4d0)" d="M 266.38541 24.213309 
L 309.865929 27.158863 
L 328.742327 29.259171 
L 309.865929 22.318125 
L 266.38541 22.318125 
L 258.2889 25.295295 
z
" style="fill:#21918c;"/>
   </g>
   <g id="PathCollection_5">
    <path clip-path="url(#p1e115ee4d0)" d="M 92.463332 238.546808 
L 135.943851 230.882687 
L 151.454965 230.165184 
L 150.134198 214.176949 
L 135.943851 214.176949 
L 92.463332 214.176949 
L 48.982813 198.188713 
L 48.982813 209.660016 
L 71.347054 214.176949 
L 69.323715 230.165184 
L 48.982813 231.433103 
L 48.982813 238.891966 
z
" style="fill:#2db27d;"/>
    <path clip-path="url(#p1e115ee4d0)" d="M 266.38541 235.815799 
L 309.865929 234.757793 
L 353.346449 240.455738 
L 353.346449 230.165184 
L 353.346449 214.176949 
L 353.346449 198.188713 
L 353.346449 187.651599 
L 319.006095 198.188713 
L 309.865929 201.291633 
L 266.38541 211.978652 
L 253.232109 214.176949 
L 227.494356 230.165184 
z
" style="fill:#2db27d;"/>
    <path clip-path="url(#p1e115ee4d0)" d="M 77.589195 107.728675 
L 92.463332 102.259301 
L 131.560885 102.259301 
L 135.943851 99.047576 
L 139.543111 102.259301 
L 179.424371 102.259301 
L 209.0899 102.259301 
L 222.90489 100.277999 
L 266.38541 98.976527 
L 275.176953 102.259301 
L 309.865929 114.794268 
L 353.346449 113.68731 
L 353.346449 103.797846 
L 309.865929 104.257511 
L 304.336132 102.259301 
L 266.38541 88.088452 
L 222.90489 92.520309 
L 185.585301 86.271066 
L 203.042842 70.282831 
L 192.378193 54.294596 
L 222.571765 38.30636 
L 185.132449 38.30636 
L 179.424371 40.829497 
L 153.385841 38.30636 
L 135.943851 38.30636 
L 92.463332 38.30636 
L 48.982813 38.30636 
L 48.982813 38.550928 
L 92.463332 41.444657 
L 135.943851 47.779742 
L 169.343694 54.294596 
L 160.079905 70.282831 
L 135.943851 75.95891 
L 105.130575 86.271066 
L 92.463332 92.211132 
L 48.982813 94.739908 
L 48.982813 102.259301 
L 48.982813 105.935592 
z
" style="fill:#2db27d;"/>
    <path clip-path="url(#p1e115ee4d0)" d="M 353.346449 42.491212 
L 353.346449 38.30636 
L 328.742327 29.259171 
L 309.865929 27.158863 
L 266.38541 24.213309 
L 258.2889 25.295295 
L 223.216952 38.191612 
L 266.38541 32.422746 
L 309.865929 36.413776 
L 326.875423 38.30636 
z
" style="fill:#2db27d;"/>
   </g>
   <g id="PathCollection_6">
    <path clip-path="url(#p1e115ee4d0)" d="M 69.323715 230.165184 
L 71.347054 214.176949 
L 48.982813 209.660016 
L 48.982813 214.176949 
L 48.982813 230.165184 
L 48.982813 231.433103 
z
" style="fill:#73d056;"/>
    <path clip-path="url(#p1e115ee4d0)" d="M 309.865929 104.257511 
L 353.346449 103.797846 
L 353.346449 102.259301 
L 353.346449 93.875051 
L 323.583293 86.271066 
L 326.868396 70.282831 
L 309.865929 63.949733 
L 282.534789 70.282831 
L 266.38541 73.00329 
L 257.876458 70.282831 
L 243.813931 54.294596 
L 266.38541 43.403166 
L 309.865929 48.59459 
L 345.149624 54.294596 
L 353.346449 57.257004 
L 353.346449 54.294596 
L 353.346449 42.491212 
L 326.875423 38.30636 
L 309.865929 36.413776 
L 266.38541 32.422746 
L 223.216952 38.191612 
L 222.90489 38.30636 
L 222.571765 38.30636 
L 192.378193 54.294596 
L 203.042842 70.282831 
L 185.585301 86.271066 
L 222.90489 92.520309 
L 266.38541 88.088452 
L 304.336132 102.259301 
z
" style="fill:#73d056;"/>
    <path clip-path="url(#p1e115ee4d0)" d="M 92.463332 92.211132 
L 105.130575 86.271066 
L 135.943851 75.95891 
L 160.079905 70.282831 
L 169.343694 54.294596 
L 135.943851 47.779742 
L 92.463332 41.444657 
L 48.982813 38.550928 
L 48.982813 46.721537 
L 92.463332 49.854847 
L 117.674862 54.294596 
L 111.517078 70.282831 
L 92.463332 76.579658 
L 48.982813 83.916362 
L 48.982813 86.271066 
L 48.982813 94.739908 
z
" style="fill:#73d056;"/>
   </g>
   <g id="PathCollection_7">
    <path clip-path="url(#p1e115ee4d0)" d="M 353.346449 93.875051 
L 353.346449 86.271066 
L 353.346449 70.282831 
L 353.346449 57.257004 
L 345.149624 54.294596 
L 309.865929 48.59459 
L 266.38541 43.403166 
L 243.813931 54.294596 
L 257.876458 70.282831 
L 266.38541 73.00329 
L 282.534789 70.282831 
L 309.865929 63.949733 
L 326.868396 70.282831 
L 323.583293 86.271066 
z
" style="fill:#d0e11c;"/>
    <path clip-path="url(#p1e115ee4d0)" d="M 92.463332 76.579658 
L 111.517078 70.282831 
L 117.674862 54.294596 
L 92.463332 49.854847 
L 48.982813 46.721537 
L 48.982813 54.294596 
L 48.982813 70.282831 
L 48.982813 83.916362 
z
" style="fill:#d0e11c;"/>
   </g>
   <g id="matplotlib.axis_1">
    <g id="xtick_1">
     <g id="line2d_1">
      <defs>
       <path d="M 0 0 
L 0 3.5 
" id="m5f8652ccd1" style="stroke:#000000;stroke-width:0.8;"/>
      </defs>
      <g>
       <use style="stroke:#000000;stroke-width:0.8;" x="48.982813" xlink:href="#m5f8652ccd1" y="294.118125"/>
      </g>
     </g>
     <g id="text_1">
      <!-- 0.0 -->
      <g transform="translate(41.03125 308.716563)scale(0.1 -0.1)">
       <defs>
        <path d="M 31.78125 66.40625 
Q 24.171875 66.40625 20.328125 58.90625 
Q 16.5 51.421875 16.5 36.375 
Q 16.5 21.390625 20.328125 13.890625 
Q 24.171875 6.390625 31.78125 6.390625 
Q 39.453125 6.390625 43.28125 13.890625 
Q 47.125 21.390625 47.125 36.375 
Q 47.125 51.421875 43.28125 58.90625 
Q 39.453125 66.40625 31.78125 66.40625 
z
M 31.78125 74.21875 
Q 44.046875 74.21875 50.515625 64.515625 
Q 56.984375 54.828125 56.984375 36.375 
Q 56.984375 17.96875 50.515625 8.265625 
Q 44.046875 -1.421875 31.78125 -1.421875 
Q 19.53125 -1.421875 13.0625 8.265625 
Q 6.59375 17.96875 6.59375 36.375 
Q 6.59375 54.828125 13.0625 64.515625 
Q 19.53125 74.21875 31.78125 74.21875 
z
" id="DejaVuSans-48"/>
        <path d="M 10.6875 12.40625 
L 21 12.40625 
L 21 0 
L 10.6875 0 
z
" id="DejaVuSans-46"/>
       </defs>
       <use xlink:href="#DejaVuSans-48"/>
       <use x="63.623047" xlink:href="#DejaVuSans-46"/>
       <use x="95.410156" xlink:href="#DejaVuSans-48"/>
      </g>
     </g>
    </g>
    <g id="xtick_2">
     <g id="line2d_2">
      <g>
       <use style="stroke:#000000;stroke-width:0.8;" x="85.216579" xlink:href="#m5f8652ccd1" y="294.118125"/>
      </g>
     </g>
     <g id="text_2">
      <!-- 2.5 -->
      <g transform="translate(77.265016 308.716563)scale(0.1 -0.1)">
       <defs>
        <path d="M 19.1875 8.296875 
L 53.609375 8.296875 
L 53.609375 0 
L 7.328125 0 
L 7.328125 8.296875 
Q 12.9375 14.109375 22.625 23.890625 
Q 32.328125 33.6875 34.8125 36.53125 
Q 39.546875 41.84375 41.421875 45.53125 
Q 43.3125 49.21875 43.3125 52.78125 
Q 43.3125 58.59375 39.234375 62.25 
Q 35.15625 65.921875 28.609375 65.921875 
Q 23.96875 65.921875 18.8125 64.3125 
Q 13.671875 62.703125 7.8125 59.421875 
L 7.8125 69.390625 
Q 13.765625 71.78125 18.9375 73 
Q 24.125 74.21875 28.421875 74.21875 
Q 39.75 74.21875 46.484375 68.546875 
Q 53.21875 62.890625 53.21875 53.421875 
Q 53.21875 48.921875 51.53125 44.890625 
Q 49.859375 40.875 45.40625 35.40625 
Q 44.1875 33.984375 37.640625 27.21875 
Q 31.109375 20.453125 19.1875 8.296875 
z
" id="DejaVuSans-50"/>
        <path d="M 10.796875 72.90625 
L 49.515625 72.90625 
L 49.515625 64.59375 
L 19.828125 64.59375 
L 19.828125 46.734375 
Q 21.96875 47.46875 24.109375 47.828125 
Q 26.265625 48.1875 28.421875 48.1875 
Q 40.625 48.1875 47.75 41.5 
Q 54.890625 34.8125 54.890625 23.390625 
Q 54.890625 11.625 47.5625 5.09375 
Q 40.234375 -1.421875 26.90625 -1.421875 
Q 22.3125 -1.421875 17.546875 -0.640625 
Q 12.796875 0.140625 7.71875 1.703125 
L 7.71875 11.625 
Q 12.109375 9.234375 16.796875 8.0625 
Q 21.484375 6.890625 26.703125 6.890625 
Q 35.15625 6.890625 40.078125 11.328125 
Q 45.015625 15.765625 45.015625 23.390625 
Q 45.015625 31 40.078125 35.4375 
Q 35.15625 39.890625 26.703125 39.890625 
Q 22.75 39.890625 18.8125 39.015625 
Q 14.890625 38.140625 10.796875 36.28125 
z
" id="DejaVuSans-53"/>
       </defs>
       <use xlink:href="#DejaVuSans-50"/>
       <use x="63.623047" xlink:href="#DejaVuSans-46"/>
       <use x="95.410156" xlink:href="#DejaVuSans-53"/>
      </g>
     </g>
    </g>
    <g id="xtick_3">
     <g id="line2d_3">
      <g>
       <use style="stroke:#000000;stroke-width:0.8;" x="121.450345" xlink:href="#m5f8652ccd1" y="294.118125"/>
      </g>
     </g>
     <g id="text_3">
      <!-- 5.0 -->
      <g transform="translate(113.498782 308.716563)scale(0.1 -0.1)">
       <use xlink:href="#DejaVuSans-53"/>
       <use x="63.623047" xlink:href="#DejaVuSans-46"/>
       <use x="95.410156" xlink:href="#DejaVuSans-48"/>
      </g>
     </g>
    </g>
    <g id="xtick_4">
     <g id="line2d_4">
      <g>
       <use style="stroke:#000000;stroke-width:0.8;" x="157.684111" xlink:href="#m5f8652ccd1" y="294.118125"/>
      </g>
     </g>
     <g id="text_4">
      <!-- 7.5 -->
      <g transform="translate(149.732549 308.716563)scale(0.1 -0.1)">
       <defs>
        <path d="M 8.203125 72.90625 
L 55.078125 72.90625 
L 55.078125 68.703125 
L 28.609375 0 
L 18.3125 0 
L 43.21875 64.59375 
L 8.203125 64.59375 
z
" id="DejaVuSans-55"/>
       </defs>
       <use xlink:href="#DejaVuSans-55"/>
       <use x="63.623047" xlink:href="#DejaVuSans-46"/>
       <use x="95.410156" xlink:href="#DejaVuSans-53"/>
      </g>
     </g>
    </g>
    <g id="xtick_5">
     <g id="line2d_5">
      <g>
       <use style="stroke:#000000;stroke-width:0.8;" x="193.917877" xlink:href="#m5f8652ccd1" y="294.118125"/>
      </g>
     </g>
     <g id="text_5">
      <!-- 10.0 -->
      <g transform="translate(182.785065 308.716563)scale(0.1 -0.1)">
       <defs>
        <path d="M 12.40625 8.296875 
L 28.515625 8.296875 
L 28.515625 63.921875 
L 10.984375 60.40625 
L 10.984375 69.390625 
L 28.421875 72.90625 
L 38.28125 72.90625 
L 38.28125 8.296875 
L 54.390625 8.296875 
L 54.390625 0 
L 12.40625 0 
z
" id="DejaVuSans-49"/>
       </defs>
       <use xlink:href="#DejaVuSans-49"/>
       <use x="63.623047" xlink:href="#DejaVuSans-48"/>
       <use x="127.246094" xlink:href="#DejaVuSans-46"/>
       <use x="159.033203" xlink:href="#DejaVuSans-48"/>
      </g>
     </g>
    </g>
    <g id="xtick_6">
     <g id="line2d_6">
      <g>
       <use style="stroke:#000000;stroke-width:0.8;" x="230.151644" xlink:href="#m5f8652ccd1" y="294.118125"/>
      </g>
     </g>
     <g id="text_6">
      <!-- 12.5 -->
      <g transform="translate(219.018831 308.716563)scale(0.1 -0.1)">
       <use xlink:href="#DejaVuSans-49"/>
       <use x="63.623047" xlink:href="#DejaVuSans-50"/>
       <use x="127.246094" xlink:href="#DejaVuSans-46"/>
       <use x="159.033203" xlink:href="#DejaVuSans-53"/>
      </g>
     </g>
    </g>
    <g id="xtick_7">
     <g id="line2d_7">
      <g>
       <use style="stroke:#000000;stroke-width:0.8;" x="266.38541" xlink:href="#m5f8652ccd1" y="294.118125"/>
      </g>
     </g>
     <g id="text_7">
      <!-- 15.0 -->
      <g transform="translate(255.252597 308.716563)scale(0.1 -0.1)">
       <use xlink:href="#DejaVuSans-49"/>
       <use x="63.623047" xlink:href="#DejaVuSans-53"/>
       <use x="127.246094" xlink:href="#DejaVuSans-46"/>
       <use x="159.033203" xlink:href="#DejaVuSans-48"/>
      </g>
     </g>
    </g>
    <g id="xtick_8">
     <g id="line2d_8">
      <g>
       <use style="stroke:#000000;stroke-width:0.8;" x="302.619176" xlink:href="#m5f8652ccd1" y="294.118125"/>
      </g>
     </g>
     <g id="text_8">
      <!-- 17.5 -->
      <g transform="translate(291.486364 308.716563)scale(0.1 -0.1)">
       <use xlink:href="#DejaVuSans-49"/>
       <use x="63.623047" xlink:href="#DejaVuSans-55"/>
       <use x="127.246094" xlink:href="#DejaVuSans-46"/>
       <use x="159.033203" xlink:href="#DejaVuSans-53"/>
      </g>
     </g>
    </g>
    <g id="xtick_9">
     <g id="line2d_9">
      <g>
       <use style="stroke:#000000;stroke-width:0.8;" x="338.852942" xlink:href="#m5f8652ccd1" y="294.118125"/>
      </g>
     </g>
     <g id="text_9">
      <!-- 20.0 -->
      <g transform="translate(327.72013 308.716563)scale(0.1 -0.1)">
       <use xlink:href="#DejaVuSans-50"/>
       <use x="63.623047" xlink:href="#DejaVuSans-48"/>
       <use x="127.246094" xlink:href="#DejaVuSans-46"/>
       <use x="159.033203" xlink:href="#DejaVuSans-48"/>
      </g>
     </g>
    </g>
    <g id="text_10">
     <!-- Local time / h -->
     <g transform="translate(167.288068 322.394687)scale(0.1 -0.1)">
      <defs>
       <path d="M 9.8125 72.90625 
L 19.671875 72.90625 
L 19.671875 8.296875 
L 55.171875 8.296875 
L 55.171875 0 
L 9.8125 0 
z
" id="DejaVuSans-76"/>
       <path d="M 30.609375 48.390625 
Q 23.390625 48.390625 19.1875 42.75 
Q 14.984375 37.109375 14.984375 27.296875 
Q 14.984375 17.484375 19.15625 11.84375 
Q 23.34375 6.203125 30.609375 6.203125 
Q 37.796875 6.203125 41.984375 11.859375 
Q 46.1875 17.53125 46.1875 27.296875 
Q 46.1875 37.015625 41.984375 42.703125 
Q 37.796875 48.390625 30.609375 48.390625 
z
M 30.609375 56 
Q 42.328125 56 49.015625 48.375 
Q 55.71875 40.765625 55.71875 27.296875 
Q 55.71875 13.875 49.015625 6.21875 
Q 42.328125 -1.421875 30.609375 -1.421875 
Q 18.84375 -1.421875 12.171875 6.21875 
Q 5.515625 13.875 5.515625 27.296875 
Q 5.515625 40.765625 12.171875 48.375 
Q 18.84375 56 30.609375 56 
z
" id="DejaVuSans-111"/>
       <path d="M 48.78125 52.59375 
L 48.78125 44.1875 
Q 44.96875 46.296875 41.140625 47.34375 
Q 37.3125 48.390625 33.40625 48.390625 
Q 24.65625 48.390625 19.8125 42.84375 
Q 14.984375 37.3125 14.984375 27.296875 
Q 14.984375 17.28125 19.8125 11.734375 
Q 24.65625 6.203125 33.40625 6.203125 
Q 37.3125 6.203125 41.140625 7.25 
Q 44.96875 8.296875 48.78125 10.40625 
L 48.78125 2.09375 
Q 45.015625 0.34375 40.984375 -0.53125 
Q 36.96875 -1.421875 32.421875 -1.421875 
Q 20.0625 -1.421875 12.78125 6.34375 
Q 5.515625 14.109375 5.515625 27.296875 
Q 5.515625 40.671875 12.859375 48.328125 
Q 20.21875 56 33.015625 56 
Q 37.15625 56 41.109375 55.140625 
Q 45.0625 54.296875 48.78125 52.59375 
z
" id="DejaVuSans-99"/>
       <path d="M 34.28125 27.484375 
Q 23.390625 27.484375 19.1875 25 
Q 14.984375 22.515625 14.984375 16.5 
Q 14.984375 11.71875 18.140625 8.90625 
Q 21.296875 6.109375 26.703125 6.109375 
Q 34.1875 6.109375 38.703125 11.40625 
Q 43.21875 16.703125 43.21875 25.484375 
L 43.21875 27.484375 
z
M 52.203125 31.203125 
L 52.203125 0 
L 43.21875 0 
L 43.21875 8.296875 
Q 40.140625 3.328125 35.546875 0.953125 
Q 30.953125 -1.421875 24.3125 -1.421875 
Q 15.921875 -1.421875 10.953125 3.296875 
Q 6 8.015625 6 15.921875 
Q 6 25.140625 12.171875 29.828125 
Q 18.359375 34.515625 30.609375 34.515625 
L 43.21875 34.515625 
L 43.21875 35.40625 
Q 43.21875 41.609375 39.140625 45 
Q 35.0625 48.390625 27.6875 48.390625 
Q 23 48.390625 18.546875 47.265625 
Q 14.109375 46.140625 10.015625 43.890625 
L 10.015625 52.203125 
Q 14.9375 54.109375 19.578125 55.046875 
Q 24.21875 56 28.609375 56 
Q 40.484375 56 46.34375 49.84375 
Q 52.203125 43.703125 52.203125 31.203125 
z
" id="DejaVuSans-97"/>
       <path d="M 9.421875 75.984375 
L 18.40625 75.984375 
L 18.40625 0 
L 9.421875 0 
z
" id="DejaVuSans-108"/>
       <path id="DejaVuSans-32"/>
       <path d="M 18.3125 70.21875 
L 18.3125 54.6875 
L 36.8125 54.6875 
L 36.8125 47.703125 
L 18.3125 47.703125 
L 18.3125 18.015625 
Q 18.3125 11.328125 20.140625 9.421875 
Q 21.96875 7.515625 27.59375 7.515625 
L 36.8125 7.515625 
L 36.8125 0 
L 27.59375 0 
Q 17.1875 0 13.234375 3.875 
Q 9.28125 7.765625 9.28125 18.015625 
L 9.28125 47.703125 
L 2.6875 47.703125 
L 2.6875 54.6875 
L 9.28125 54.6875 
L 9.28125 70.21875 
z
" id="DejaVuSans-116"/>
       <path d="M 9.421875 54.6875 
L 18.40625 54.6875 
L 18.40625 0 
L 9.421875 0 
z
M 9.421875 75.984375 
L 18.40625 75.984375 
L 18.40625 64.59375 
L 9.421875 64.59375 
z
" id="DejaVuSans-105"/>
       <path d="M 52 44.1875 
Q 55.375 50.25 60.0625 53.125 
Q 64.75 56 71.09375 56 
Q 79.640625 56 84.28125 50.015625 
Q 88.921875 44.046875 88.921875 33.015625 
L 88.921875 0 
L 79.890625 0 
L 79.890625 32.71875 
Q 79.890625 40.578125 77.09375 44.375 
Q 74.3125 48.1875 68.609375 48.1875 
Q 61.625 48.1875 57.5625 43.546875 
Q 53.515625 38.921875 53.515625 30.90625 
L 53.515625 0 
L 44.484375 0 
L 44.484375 32.71875 
Q 44.484375 40.625 41.703125 44.40625 
Q 38.921875 48.1875 33.109375 48.1875 
Q 26.21875 48.1875 22.15625 43.53125 
Q 18.109375 38.875 18.109375 30.90625 
L 18.109375 0 
L 9.078125 0 
L 9.078125 54.6875 
L 18.109375 54.6875 
L 18.109375 46.1875 
Q 21.1875 51.21875 25.484375 53.609375 
Q 29.78125 56 35.6875 56 
Q 41.65625 56 45.828125 52.96875 
Q 50 49.953125 52 44.1875 
z
" id="DejaVuSans-109"/>
       <path d="M 56.203125 29.59375 
L 56.203125 25.203125 
L 14.890625 25.203125 
Q 15.484375 15.921875 20.484375 11.0625 
Q 25.484375 6.203125 34.421875 6.203125 
Q 39.59375 6.203125 44.453125 7.46875 
Q 49.3125 8.734375 54.109375 11.28125 
L 54.109375 2.78125 
Q 49.265625 0.734375 44.1875 -0.34375 
Q 39.109375 -1.421875 33.890625 -1.421875 
Q 20.796875 -1.421875 13.15625 6.1875 
Q 5.515625 13.8125 5.515625 26.8125 
Q 5.515625 40.234375 12.765625 48.109375 
Q 20.015625 56 32.328125 56 
Q 43.359375 56 49.78125 48.890625 
Q 56.203125 41.796875 56.203125 29.59375 
z
M 47.21875 32.234375 
Q 47.125 39.59375 43.09375 43.984375 
Q 39.0625 48.390625 32.421875 48.390625 
Q 24.90625 48.390625 20.390625 44.140625 
Q 15.875 39.890625 15.1875 32.171875 
z
" id="DejaVuSans-101"/>
       <path d="M 25.390625 72.90625 
L 33.6875 72.90625 
L 8.296875 -9.28125 
L 0 -9.28125 
z
" id="DejaVuSans-47"/>
       <path d="M 54.890625 33.015625 
L 54.890625 0 
L 45.90625 0 
L 45.90625 32.71875 
Q 45.90625 40.484375 42.875 44.328125 
Q 39.84375 48.1875 33.796875 48.1875 
Q 26.515625 48.1875 22.3125 43.546875 
Q 18.109375 38.921875 18.109375 30.90625 
L 18.109375 0 
L 9.078125 0 
L 9.078125 75.984375 
L 18.109375 75.984375 
L 18.109375 46.1875 
Q 21.34375 51.125 25.703125 53.5625 
Q 30.078125 56 35.796875 56 
Q 45.21875 56 50.046875 50.171875 
Q 54.890625 44.34375 54.890625 33.015625 
z
" id="DejaVuSans-104"/>
      </defs>
      <use xlink:href="#DejaVuSans-76"/>
      <use x="53.962891" xlink:href="#DejaVuSans-111"/>
      <use x="115.144531" xlink:href="#DejaVuSans-99"/>
      <use x="170.125" xlink:href="#DejaVuSans-97"/>
      <use x="231.404297" xlink:href="#DejaVuSans-108"/>
      <use x="259.1875" xlink:href="#DejaVuSans-32"/>
      <use x="290.974609" xlink:href="#DejaVuSans-116"/>
      <use x="330.183594" xlink:href="#DejaVuSans-105"/>
      <use x="357.966797" xlink:href="#DejaVuSans-109"/>
      <use x="455.378906" xlink:href="#DejaVuSans-101"/>
      <use x="516.902344" xlink:href="#DejaVuSans-32"/>
      <use x="548.689453" xlink:href="#DejaVuSans-47"/>
      <use x="582.380859" xlink:href="#DejaVuSans-32"/>
      <use x="614.167969" xlink:href="#DejaVuSans-104"/>
     </g>
    </g>
   </g>
   <g id="matplotlib.axis_2">
    <g id="ytick_1">
     <g id="line2d_10">
      <defs>
       <path d="M 0 0 
L -3.5 0 
" id="m69606bd994" style="stroke:#000000;stroke-width:0.8;"/>
      </defs>
      <g>
       <use style="stroke:#000000;stroke-width:0.8;" x="48.982813" xlink:href="#m69606bd994" y="278.12989"/>
      </g>
     </g>
     <g id="text_11">
      <!-- −80 -->
      <g transform="translate(20.878125 281.929108)scale(0.1 -0.1)">
       <defs>
        <path d="M 10.59375 35.5 
L 73.1875 35.5 
L 73.1875 27.203125 
L 10.59375 27.203125 
z
" id="DejaVuSans-8722"/>
        <path d="M 31.78125 34.625 
Q 24.75 34.625 20.71875 30.859375 
Q 16.703125 27.09375 16.703125 20.515625 
Q 16.703125 13.921875 20.71875 10.15625 
Q 24.75 6.390625 31.78125 6.390625 
Q 38.8125 6.390625 42.859375 10.171875 
Q 46.921875 13.96875 46.921875 20.515625 
Q 46.921875 27.09375 42.890625 30.859375 
Q 38.875 34.625 31.78125 34.625 
z
M 21.921875 38.8125 
Q 15.578125 40.375 12.03125 44.71875 
Q 8.5 49.078125 8.5 55.328125 
Q 8.5 64.0625 14.71875 69.140625 
Q 20.953125 74.21875 31.78125 74.21875 
Q 42.671875 74.21875 48.875 69.140625 
Q 55.078125 64.0625 55.078125 55.328125 
Q 55.078125 49.078125 51.53125 44.71875 
Q 48 40.375 41.703125 38.8125 
Q 48.828125 37.15625 52.796875 32.3125 
Q 56.78125 27.484375 56.78125 20.515625 
Q 56.78125 9.90625 50.3125 4.234375 
Q 43.84375 -1.421875 31.78125 -1.421875 
Q 19.734375 -1.421875 13.25 4.234375 
Q 6.78125 9.90625 6.78125 20.515625 
Q 6.78125 27.484375 10.78125 32.3125 
Q 14.796875 37.15625 21.921875 38.8125 
z
M 18.3125 54.390625 
Q 18.3125 48.734375 21.84375 45.5625 
Q 25.390625 42.390625 31.78125 42.390625 
Q 38.140625 42.390625 41.71875 45.5625 
Q 45.3125 48.734375 45.3125 54.390625 
Q 45.3125 60.0625 41.71875 63.234375 
Q 38.140625 66.40625 31.78125 66.40625 
Q 25.390625 66.40625 21.84375 63.234375 
Q 18.3125 60.0625 18.3125 54.390625 
z
" id="DejaVuSans-56"/>
       </defs>
       <use xlink:href="#DejaVuSans-8722"/>
       <use x="83.789062" xlink:href="#DejaVuSans-56"/>
       <use x="147.412109" xlink:href="#DejaVuSans-48"/>
      </g>
     </g>
    </g>
    <g id="ytick_2">
     <g id="line2d_11">
      <g>
       <use style="stroke:#000000;stroke-width:0.8;" x="48.982813" xlink:href="#m69606bd994" y="246.153419"/>
      </g>
     </g>
     <g id="text_12">
      <!-- −60 -->
      <g transform="translate(20.878125 249.952638)scale(0.1 -0.1)">
       <defs>
        <path d="M 33.015625 40.375 
Q 26.375 40.375 22.484375 35.828125 
Q 18.609375 31.296875 18.609375 23.390625 
Q 18.609375 15.53125 22.484375 10.953125 
Q 26.375 6.390625 33.015625 6.390625 
Q 39.65625 6.390625 43.53125 10.953125 
Q 47.40625 15.53125 47.40625 23.390625 
Q 47.40625 31.296875 43.53125 35.828125 
Q 39.65625 40.375 33.015625 40.375 
z
M 52.59375 71.296875 
L 52.59375 62.3125 
Q 48.875 64.0625 45.09375 64.984375 
Q 41.3125 65.921875 37.59375 65.921875 
Q 27.828125 65.921875 22.671875 59.328125 
Q 17.53125 52.734375 16.796875 39.40625 
Q 19.671875 43.65625 24.015625 45.921875 
Q 28.375 48.1875 33.59375 48.1875 
Q 44.578125 48.1875 50.953125 41.515625 
Q 57.328125 34.859375 57.328125 23.390625 
Q 57.328125 12.15625 50.6875 5.359375 
Q 44.046875 -1.421875 33.015625 -1.421875 
Q 20.359375 -1.421875 13.671875 8.265625 
Q 6.984375 17.96875 6.984375 36.375 
Q 6.984375 53.65625 15.1875 63.9375 
Q 23.390625 74.21875 37.203125 74.21875 
Q 40.921875 74.21875 44.703125 73.484375 
Q 48.484375 72.75 52.59375 71.296875 
z
" id="DejaVuSans-54"/>
       </defs>
       <use xlink:href="#DejaVuSans-8722"/>
       <use x="83.789062" xlink:href="#DejaVuSans-54"/>
       <use x="147.412109" xlink:href="#DejaVuSans-48"/>
      </g>
     </g>
    </g>
    <g id="ytick_3">
     <g id="line2d_12">
      <g>
       <use style="stroke:#000000;stroke-width:0.8;" x="48.982813" xlink:href="#m69606bd994" y="214.176949"/>
      </g>
     </g>
     <g id="text_13">
      <!-- −40 -->
      <g transform="translate(20.878125 217.976167)scale(0.1 -0.1)">
       <defs>
        <path d="M 37.796875 64.3125 
L 12.890625 25.390625 
L 37.796875 25.390625 
z
M 35.203125 72.90625 
L 47.609375 72.90625 
L 47.609375 25.390625 
L 58.015625 25.390625 
L 58.015625 17.1875 
L 47.609375 17.1875 
L 47.609375 0 
L 37.796875 0 
L 37.796875 17.1875 
L 4.890625 17.1875 
L 4.890625 26.703125 
z
" id="DejaVuSans-52"/>
       </defs>
       <use xlink:href="#DejaVuSans-8722"/>
       <use x="83.789062" xlink:href="#DejaVuSans-52"/>
       <use x="147.412109" xlink:href="#DejaVuSans-48"/>
      </g>
     </g>
    </g>
    <g id="ytick_4">
     <g id="line2d_13">
      <g>
       <use style="stroke:#000000;stroke-width:0.8;" x="48.982813" xlink:href="#m69606bd994" y="182.200478"/>
      </g>
     </g>
     <g id="text_14">
      <!-- −20 -->
      <g transform="translate(20.878125 185.999697)scale(0.1 -0.1)">
       <use xlink:href="#DejaVuSans-8722"/>
       <use x="83.789062" xlink:href="#DejaVuSans-50"/>
       <use x="147.412109" xlink:href="#DejaVuSans-48"/>
      </g>
     </g>
    </g>
    <g id="ytick_5">
     <g id="line2d_14">
      <g>
       <use style="stroke:#000000;stroke-width:0.8;" x="48.982813" xlink:href="#m69606bd994" y="150.224007"/>
      </g>
     </g>
     <g id="text_15">
      <!-- 0 -->
      <g transform="translate(35.620313 154.023226)scale(0.1 -0.1)">
       <use xlink:href="#DejaVuSans-48"/>
      </g>
     </g>
    </g>
    <g id="ytick_6">
     <g id="line2d_15">
      <g>
       <use style="stroke:#000000;stroke-width:0.8;" x="48.982813" xlink:href="#m69606bd994" y="118.247537"/>
      </g>
     </g>
     <g id="text_16">
      <!-- 20 -->
      <g transform="translate(29.257813 122.046756)scale(0.1 -0.1)">
       <use xlink:href="#DejaVuSans-50"/>
       <use x="63.623047" xlink:href="#DejaVuSans-48"/>
      </g>
     </g>
    </g>
    <g id="ytick_7">
     <g id="line2d_16">
      <g>
       <use style="stroke:#000000;stroke-width:0.8;" x="48.982813" xlink:href="#m69606bd994" y="86.271066"/>
      </g>
     </g>
     <g id="text_17">
      <!-- 40 -->
      <g transform="translate(29.257813 90.070285)scale(0.1 -0.1)">
       <use xlink:href="#DejaVuSans-52"/>
       <use x="63.623047" xlink:href="#DejaVuSans-48"/>
      </g>
     </g>
    </g>
    <g id="ytick_8">
     <g id="line2d_17">
      <g>
       <use style="stroke:#000000;stroke-width:0.8;" x="48.982813" xlink:href="#m69606bd994" y="54.294596"/>
      </g>
     </g>
     <g id="text_18">
      <!-- 60 -->
      <g transform="translate(29.257813 58.093814)scale(0.1 -0.1)">
       <use xlink:href="#DejaVuSans-54"/>
       <use x="63.623047" xlink:href="#DejaVuSans-48"/>
      </g>
     </g>
    </g>
    <g id="ytick_9">
     <g id="line2d_18">
      <g>
       <use style="stroke:#000000;stroke-width:0.8;" x="48.982813" xlink:href="#m69606bd994" y="22.318125"/>
      </g>
     </g>
     <g id="text_19">
      <!-- 80 -->
      <g transform="translate(29.257813 26.117344)scale(0.1 -0.1)">
       <use xlink:href="#DejaVuSans-56"/>
       <use x="63.623047" xlink:href="#DejaVuSans-48"/>
      </g>
     </g>
    </g>
    <g id="text_20">
     <!-- Latitude / deg -->
     <g transform="translate(14.798438 193.084531)rotate(-90)scale(0.1 -0.1)">
      <defs>
       <path d="M 8.5 21.578125 
L 8.5 54.6875 
L 17.484375 54.6875 
L 17.484375 21.921875 
Q 17.484375 14.15625 20.5 10.265625 
Q 23.53125 6.390625 29.59375 6.390625 
Q 36.859375 6.390625 41.078125 11.03125 
Q 45.3125 15.671875 45.3125 23.6875 
L 45.3125 54.6875 
L 54.296875 54.6875 
L 54.296875 0 
L 45.3125 0 
L 45.3125 8.40625 
Q 42.046875 3.421875 37.71875 1 
Q 33.40625 -1.421875 27.6875 -1.421875 
Q 18.265625 -1.421875 13.375 4.4375 
Q 8.5 10.296875 8.5 21.578125 
z
M 31.109375 56 
z
" id="DejaVuSans-117"/>
       <path d="M 45.40625 46.390625 
L 45.40625 75.984375 
L 54.390625 75.984375 
L 54.390625 0 
L 45.40625 0 
L 45.40625 8.203125 
Q 42.578125 3.328125 38.25 0.953125 
Q 33.9375 -1.421875 27.875 -1.421875 
Q 17.96875 -1.421875 11.734375 6.484375 
Q 5.515625 14.40625 5.515625 27.296875 
Q 5.515625 40.1875 11.734375 48.09375 
Q 17.96875 56 27.875 56 
Q 33.9375 56 38.25 53.625 
Q 42.578125 51.265625 45.40625 46.390625 
z
M 14.796875 27.296875 
Q 14.796875 17.390625 18.875 11.75 
Q 22.953125 6.109375 30.078125 6.109375 
Q 37.203125 6.109375 41.296875 11.75 
Q 45.40625 17.390625 45.40625 27.296875 
Q 45.40625 37.203125 41.296875 42.84375 
Q 37.203125 48.484375 30.078125 48.484375 
Q 22.953125 48.484375 18.875 42.84375 
Q 14.796875 37.203125 14.796875 27.296875 
z
" id="DejaVuSans-100"/>
       <path d="M 45.40625 27.984375 
Q 45.40625 37.75 41.375 43.109375 
Q 37.359375 48.484375 30.078125 48.484375 
Q 22.859375 48.484375 18.828125 43.109375 
Q 14.796875 37.75 14.796875 27.984375 
Q 14.796875 18.265625 18.828125 12.890625 
Q 22.859375 7.515625 30.078125 7.515625 
Q 37.359375 7.515625 41.375 12.890625 
Q 45.40625 18.265625 45.40625 27.984375 
z
M 54.390625 6.78125 
Q 54.390625 -7.171875 48.1875 -13.984375 
Q 42 -20.796875 29.203125 -20.796875 
Q 24.46875 -20.796875 20.265625 -20.09375 
Q 16.0625 -19.390625 12.109375 -17.921875 
L 12.109375 -9.1875 
Q 16.0625 -11.328125 19.921875 -12.34375 
Q 23.78125 -13.375 27.78125 -13.375 
Q 36.625 -13.375 41.015625 -8.765625 
Q 45.40625 -4.15625 45.40625 5.171875 
L 45.40625 9.625 
Q 42.625 4.78125 38.28125 2.390625 
Q 33.9375 0 27.875 0 
Q 17.828125 0 11.671875 7.65625 
Q 5.515625 15.328125 5.515625 27.984375 
Q 5.515625 40.671875 11.671875 48.328125 
Q 17.828125 56 27.875 56 
Q 33.9375 56 38.28125 53.609375 
Q 42.625 51.21875 45.40625 46.390625 
L 45.40625 54.6875 
L 54.390625 54.6875 
z
" id="DejaVuSans-103"/>
      </defs>
      <use xlink:href="#DejaVuSans-76"/>
      <use x="55.712891" xlink:href="#DejaVuSans-97"/>
      <use x="116.992188" xlink:href="#DejaVuSans-116"/>
      <use x="156.201172" xlink:href="#DejaVuSans-105"/>
      <use x="183.984375" xlink:href="#DejaVuSans-116"/>
      <use x="223.193359" xlink:href="#DejaVuSans-117"/>
      <use x="286.572266" xlink:href="#DejaVuSans-100"/>
      <use x="350.048828" xlink:href="#DejaVuSans-101"/>
      <use x="411.572266" xlink:href="#DejaVuSans-32"/>
      <use x="443.359375" xlink:href="#DejaVuSans-47"/>
      <use x="477.050781" xlink:href="#DejaVuSans-32"/>
      <use x="508.837891" xlink:href="#DejaVuSans-100"/>
      <use x="572.314453" xlink:href="#DejaVuSans-101"/>
      <use x="633.837891" xlink:href="#DejaVuSans-103"/>
     </g>
    </g>
   </g>
   <g id="patch_3">
    <path d="M 48.982813 294.118125 
L 48.982813 22.318125 
" style="fill:none;stroke:#000000;stroke-linecap:square;stroke-linejoin:miter;stroke-width:0.8;"/>
   </g>
   <g id="patch_4">
    <path d="M 353.346449 294.118125 
L 353.346449 22.318125 
" style="fill:none;stroke:#000000;stroke-linecap:square;stroke-linejoin:miter;stroke-width:0.8;"/>
   </g>
   <g id="patch_5">
    <path d="M 48.982813 294.118125 
L 353.346449 294.118125 
" style="fill:none;stroke:#000000;stroke-linecap:square;stroke-linejoin:miter;stroke-width:0.8;"/>
   </g>
   <g id="patch_6">
    <path d="M 48.982813 22.318125 
L 353.346449 22.318125 
" style="fill:none;stroke:#000000;stroke-linecap:square;stroke-linejoin:miter;stroke-width:0.8;"/>
   </g>
   <g id="text_21">
    <!-- Zonal wind / m/s -->
    <g transform="translate(151.318693 16.318125)scale(0.12 -0.12)">
     <defs>
      <path d="M 5.609375 72.90625 
L 62.890625 72.90625 
L 62.890625 65.375 
L 16.796875 8.296875 
L 64.015625 8.296875 
L 64.015625 0 
L 4.5 0 
L 4.5 7.515625 
L 50.59375 64.59375 
L 5.609375 64.59375 
z
" id="DejaVuSans-90"/>
      <path d="M 54.890625 33.015625 
L 54.890625 0 
L 45.90625 0 
L 45.90625 32.71875 
Q 45.90625 40.484375 42.875 44.328125 
Q 39.84375 48.1875 33.796875 48.1875 
Q 26.515625 48.1875 22.3125 43.546875 
Q 18.109375 38.921875 18.109375 30.90625 
L 18.109375 0 
L 9.078125 0 
L 9.078125 54.6875 
L 18.109375 54.6875 
L 18.109375 46.1875 
Q 21.34375 51.125 25.703125 53.5625 
Q 30.078125 56 35.796875 56 
Q 45.21875 56 50.046875 50.171875 
Q 54.890625 44.34375 54.890625 33.015625 
z
" id="DejaVuSans-110"/>
      <path d="M 4.203125 54.6875 
L 13.1875 54.6875 
L 24.421875 12.015625 
L 35.59375 54.6875 
L 46.1875 54.6875 
L 57.421875 12.015625 
L 68.609375 54.6875 
L 77.59375 54.6875 
L 63.28125 0 
L 52.6875 0 
L 40.921875 44.828125 
L 29.109375 0 
L 18.5 0 
z
" id="DejaVuSans-119"/>
      <path d="M 44.28125 53.078125 
L 44.28125 44.578125 
Q 40.484375 46.53125 36.375 47.5 
Q 32.28125 48.484375 27.875 48.484375 
Q 21.1875 48.484375 17.84375 46.4375 
Q 14.5 44.390625 14.5 40.28125 
Q 14.5 37.15625 16.890625 35.375 
Q 19.28125 33.59375 26.515625 31.984375 
L 29.59375 31.296875 
Q 39.15625 29.25 43.1875 25.515625 
Q 47.21875 21.78125 47.21875 15.09375 
Q 47.21875 7.46875 41.1875 3.015625 
Q 35.15625 -1.421875 24.609375 -1.421875 
Q 20.21875 -1.421875 15.453125 -0.5625 
Q 10.6875 0.296875 5.421875 2 
L 5.421875 11.28125 
Q 10.40625 8.6875 15.234375 7.390625 
Q 20.0625 6.109375 24.8125 6.109375 
Q 31.15625 6.109375 34.5625 8.28125 
Q 37.984375 10.453125 37.984375 14.40625 
Q 37.984375 18.0625 35.515625 20.015625 
Q 33.0625 21.96875 24.703125 23.78125 
L 21.578125 24.515625 
Q 13.234375 26.265625 9.515625 29.90625 
Q 5.8125 33.546875 5.8125 39.890625 
Q 5.8125 47.609375 11.28125 51.796875 
Q 16.75 56 26.8125 56 
Q 31.78125 56 36.171875 55.265625 
Q 40.578125 54.546875 44.28125 53.078125 
z
" id="DejaVuSans-115"/>
     </defs>
     <use xlink:href="#DejaVuSans-90"/>
     <use x="68.505859" xlink:href="#DejaVuSans-111"/>
     <use x="129.6875" xlink:href="#DejaVuSans-110"/>
     <use x="193.066406" xlink:href="#DejaVuSans-97"/>
     <use x="254.345703" xlink:href="#DejaVuSans-108"/>
     <use x="282.128906" xlink:href="#DejaVuSans-32"/>
     <use x="313.916016" xlink:href="#DejaVuSans-119"/>
     <use x="395.703125" xlink:href="#DejaVuSans-105"/>
     <use x="423.486328" xlink:href="#DejaVuSans-110"/>
     <use x="486.865234" xlink:href="#DejaVuSans-100"/>
     <use x="550.341797" xlink:href="#DejaVuSans-32"/>
     <use x="582.128906" xlink:href="#DejaVuSans-47"/>
     <use x="615.820312" xlink:href="#DejaVuSans-32"/>
     <use x="647.607422" xlink:href="#DejaVuSans-109"/>
     <use x="745.019531" xlink:href="#DejaVuSans-47"/>
     <use x="778.710938" xlink:href="#DejaVuSans-115"/>
    </g>
   </g>
  </g>
  <g id="axes_2">
   <g id="patch_7">
    <path d="M 505.528267 294.118125 
L 809.891903 294.118125 
L 809.891903 22.318125 
L 505.528267 22.318125 
z
" style="fill:#ffffff;"/>
   </g>
   <g id="PathCollection_8">
    <path clip-path="url(#pfd1b2ec9b9)" d="M 679.450345 150.224007 
L 709.648628 150.224007 
L 679.450345 148.63407 
L 662.569551 144.016765 
z
" style="fill:#481b6d;"/>
    <path clip-path="url(#pfd1b2ec9b9)" d="M 636.108846 86.271066 
L 635.969825 85.385186 
L 635.969825 86.271066 
L 635.969825 86.405265 
z
" style="fill:#481b6d;"/>
   </g>
   <g id="PathCollection_9">
    <path clip-path="url(#pfd1b2ec9b9)" d="M 518.059889 246.153419 
L 515.692972 230.165184 
L 508.571273 214.176949 
L 505.528267 211.672543 
L 505.528267 214.176949 
L 505.528267 230.165184 
L 505.528267 246.153419 
L 505.528267 254.622688 
z
" style="fill:#3f4788;"/>
    <path clip-path="url(#pfd1b2ec9b9)" d="M 679.450345 148.63407 
L 709.648628 150.224007 
L 722.930864 150.224007 
L 722.930864 147.112541 
L 679.450345 143.770791 
L 644.590467 134.235772 
L 635.969825 126.990281 
L 635.969825 134.235772 
L 662.569551 144.016765 
z
" style="fill:#3f4788;"/>
    <path clip-path="url(#pfd1b2ec9b9)" d="M 647.421882 86.271066 
L 646.594833 70.282831 
L 635.969825 61.757601 
L 635.969825 70.282831 
L 635.969825 85.385186 
L 636.108846 86.271066 
L 635.969825 86.405265 
L 635.969825 97.325907 
z
" style="fill:#3f4788;"/>
   </g>
   <g id="PathCollection_10">
    <path clip-path="url(#pfd1b2ec9b9)" d="M 549.008787 262.141654 
L 578.235382 262.141654 
L 549.008787 246.889629 
L 547.876666 246.153419 
L 548.123339 230.165184 
L 528.961839 214.176949 
L 508.790879 198.188713 
L 505.528267 197.079063 
L 505.528267 198.188713 
L 505.528267 211.672543 
L 508.571273 214.176949 
L 515.692972 230.165184 
L 518.059889 246.153419 
L 505.528267 254.622688 
L 505.528267 262.141654 
z
" style="fill:#2e6e8e;"/>
    <path clip-path="url(#pfd1b2ec9b9)" d="M 679.450345 143.770791 
L 722.930864 147.112541 
L 722.930864 143.478526 
L 679.450345 138.907512 
L 662.370539 134.235772 
L 648.947433 118.247537 
L 651.035428 102.259301 
L 658.734917 86.271066 
L 660.03559 70.282831 
L 646.788518 54.294596 
L 635.969825 50.8495 
L 635.969825 54.294596 
L 635.969825 61.757601 
L 646.594833 70.282831 
L 647.421882 86.271066 
L 635.969825 97.325907 
L 635.969825 102.259301 
L 635.969825 118.247537 
L 635.969825 126.990281 
L 644.590467 134.235772 
z
" style="fill:#2e6e8e;"/>
    <path clip-path="url(#pfd1b2ec9b9)" d="M 722.930864 86.712903 
L 722.930864 86.271066 
L 721.190802 85.631227 
L 721.546521 86.271066 
z
" style="fill:#2e6e8e;"/>
   </g>
   <g id="PathCollection_11">
    <path clip-path="url(#pfd1b2ec9b9)" d="M 549.008787 246.889629 
L 578.235382 262.141654 
L 592.489306 262.141654 
L 549.008787 246.153419 
L 549.008787 230.165184 
L 549.008787 214.176949 
L 549.008787 213.989736 
L 525.393923 198.188713 
L 505.528267 191.432185 
L 505.528267 197.079063 
L 508.790879 198.188713 
L 528.961839 214.176949 
L 548.123339 230.165184 
L 547.876666 246.153419 
z
" style="fill:#21918c;"/>
    <path clip-path="url(#pfd1b2ec9b9)" d="M 679.450345 138.907512 
L 722.930864 143.478526 
L 722.930864 139.844511 
L 680.532283 134.235772 
L 679.900473 118.247537 
L 679.450345 111.529953 
L 678.51484 102.259301 
L 670.047952 86.271066 
L 673.476348 70.282831 
L 679.450345 56.474734 
L 679.450345 54.294596 
L 679.450345 38.30636 
L 679.450345 22.318125 
L 636.327304 22.318125 
L 642.844587 38.30636 
L 635.969825 39.663714 
L 635.969825 50.8495 
L 646.788518 54.294596 
L 660.03559 70.282831 
L 658.734917 86.271066 
L 651.035428 102.259301 
L 648.947433 118.247537 
L 662.370539 134.235772 
z
" style="fill:#21918c;"/>
    <path clip-path="url(#pfd1b2ec9b9)" d="M 722.930864 94.05037 
L 722.930864 86.712903 
L 721.546521 86.271066 
L 721.190802 85.631227 
L 692.294049 75.005593 
L 698.557108 86.271066 
z
" style="fill:#21918c;"/>
   </g>
   <g id="PathCollection_12">
    <path clip-path="url(#pfd1b2ec9b9)" d="M 549.008787 213.989736 
L 549.008787 202.880416 
L 541.996967 198.188713 
L 505.528267 185.785307 
L 505.528267 191.432185 
L 525.393923 198.188713 
z
" style="fill:#2db27d;"/>
    <path clip-path="url(#pfd1b2ec9b9)" d="M 722.930864 139.844511 
L 722.930864 136.210496 
L 708.003176 134.235772 
L 698.147615 118.247537 
L 718.170076 102.259301 
L 722.930864 101.387836 
L 722.930864 94.05037 
L 698.557108 86.271066 
L 692.294049 75.005593 
L 679.450345 70.282831 
L 679.450345 56.474734 
L 673.476348 70.282831 
L 670.047952 86.271066 
L 678.51484 102.259301 
L 679.450345 111.529953 
L 679.900473 118.247537 
L 680.532283 134.235772 
z
" style="fill:#2db27d;"/>
    <path clip-path="url(#pfd1b2ec9b9)" d="M 642.844587 38.30636 
L 636.327304 22.318125 
L 635.969825 22.318125 
L 635.969825 38.30636 
L 635.969825 39.663714 
z
" style="fill:#2db27d;"/>
   </g>
   <g id="PathCollection_13">
    <path clip-path="url(#pfd1b2ec9b9)" d="M 549.008787 202.880416 
L 549.008787 198.188713 
L 549.008787 191.557669 
L 518.980007 182.200478 
L 505.528267 182.200478 
L 505.528267 185.785307 
L 541.996967 198.188713 
z
" style="fill:#73d056;"/>
    <path clip-path="url(#pfd1b2ec9b9)" d="M 722.930864 136.210496 
L 722.930864 134.235772 
L 722.930864 125.276229 
L 716.394756 118.247537 
L 722.930864 113.626888 
L 722.930864 102.259301 
L 722.930864 101.387836 
L 718.170076 102.259301 
L 698.147615 118.247537 
L 708.003176 134.235772 
z
" style="fill:#73d056;"/>
   </g>
   <g id="PathCollection_14">
    <path clip-path="url(#pfd1b2ec9b9)" d="M 549.008787 191.557669 
L 549.008787 182.200478 
L 518.980007 182.200478 
z
" style="fill:#d0e11c;"/>
    <path clip-path="url(#pfd1b2ec9b9)" d="M 722.930864 125.276229 
L 722.930864 118.247537 
L 722.930864 113.626888 
L 716.394756 118.247537 
z
" style="fill:#d0e11c;"/>
   </g>
   <g id="matplotlib.axis_3">
    <g id="xtick_10">
     <g id="line2d_19">
      <g>
       <use style="stroke:#000000;stroke-width:0.8;" x="505.528267" xlink:href="#m5f8652ccd1" y="294.118125"/>
      </g>
     </g>
     <g id="text_22">
      <!-- 0.0 -->
      <g transform="translate(497.576705 308.716563)scale(0.1 -0.1)">
       <use xlink:href="#DejaVuSans-48"/>
       <use x="63.623047" xlink:href="#DejaVuSans-46"/>
       <use x="95.410156" xlink:href="#DejaVuSans-48"/>
      </g>
     </g>
    </g>
    <g id="xtick_11">
     <g id="line2d_20">
      <g>
       <use style="stroke:#000000;stroke-width:0.8;" x="541.762033" xlink:href="#m5f8652ccd1" y="294.118125"/>
      </g>
     </g>
     <g id="text_23">
      <!-- 2.5 -->
      <g transform="translate(533.810471 308.716563)scale(0.1 -0.1)">
       <use xlink:href="#DejaVuSans-50"/>
       <use x="63.623047" xlink:href="#DejaVuSans-46"/>
       <use x="95.410156" xlink:href="#DejaVuSans-53"/>
      </g>
     </g>
    </g>
    <g id="xtick_12">
     <g id="line2d_21">
      <g>
       <use style="stroke:#000000;stroke-width:0.8;" x="577.9958" xlink:href="#m5f8652ccd1" y="294.118125"/>
      </g>
     </g>
     <g id="text_24">
      <!-- 5.0 -->
      <g transform="translate(570.044237 308.716563)scale(0.1 -0.1)">
       <use xlink:href="#DejaVuSans-53"/>
       <use x="63.623047" xlink:href="#DejaVuSans-46"/>
       <use x="95.410156" xlink:href="#DejaVuSans-48"/>
      </g>
     </g>
    </g>
    <g id="xtick_13">
     <g id="line2d_22">
      <g>
       <use style="stroke:#000000;stroke-width:0.8;" x="614.229566" xlink:href="#m5f8652ccd1" y="294.118125"/>
      </g>
     </g>
     <g id="text_25">
      <!-- 7.5 -->
      <g transform="translate(606.278003 308.716563)scale(0.1 -0.1)">
       <use xlink:href="#DejaVuSans-55"/>
       <use x="63.623047" xlink:href="#DejaVuSans-46"/>
       <use x="95.410156" xlink:href="#DejaVuSans-53"/>
      </g>
     </g>
    </g>
    <g id="xtick_14">
     <g id="line2d_23">
      <g>
       <use style="stroke:#000000;stroke-width:0.8;" x="650.463332" xlink:href="#m5f8652ccd1" y="294.118125"/>
      </g>
     </g>
     <g id="text_26">
      <!-- 10.0 -->
      <g transform="translate(639.330519 308.716563)scale(0.1 -0.1)">
       <use xlink:href="#DejaVuSans-49"/>
       <use x="63.623047" xlink:href="#DejaVuSans-48"/>
       <use x="127.246094" xlink:href="#DejaVuSans-46"/>
       <use x="159.033203" xlink:href="#DejaVuSans-48"/>
      </g>
     </g>
    </g>
    <g id="xtick_15">
     <g id="line2d_24">
      <g>
       <use style="stroke:#000000;stroke-width:0.8;" x="686.697098" xlink:href="#m5f8652ccd1" y="294.118125"/>
      </g>
     </g>
     <g id="text_27">
      <!-- 12.5 -->
      <g transform="translate(675.564286 308.716563)scale(0.1 -0.1)">
       <use xlink:href="#DejaVuSans-49"/>
       <use x="63.623047" xlink:href="#DejaVuSans-50"/>
       <use x="127.246094" xlink:href="#DejaVuSans-46"/>
       <use x="159.033203" xlink:href="#DejaVuSans-53"/>
      </g>
     </g>
    </g>
    <g id="xtick_16">
     <g id="line2d_25">
      <g>
       <use style="stroke:#000000;stroke-width:0.8;" x="722.930864" xlink:href="#m5f8652ccd1" y="294.118125"/>
      </g>
     </g>
     <g id="text_28">
      <!-- 15.0 -->
      <g transform="translate(711.798052 308.716563)scale(0.1 -0.1)">
       <use xlink:href="#DejaVuSans-49"/>
       <use x="63.623047" xlink:href="#DejaVuSans-53"/>
       <use x="127.246094" xlink:href="#DejaVuSans-46"/>
       <use x="159.033203" xlink:href="#DejaVuSans-48"/>
      </g>
     </g>
    </g>
    <g id="xtick_17">
     <g id="line2d_26">
      <g>
       <use style="stroke:#000000;stroke-width:0.8;" x="759.164631" xlink:href="#m5f8652ccd1" y="294.118125"/>
      </g>
     </g>
     <g id="text_29">
      <!-- 17.5 -->
      <g transform="translate(748.031818 308.716563)scale(0.1 -0.1)">
       <use xlink:href="#DejaVuSans-49"/>
       <use x="63.623047" xlink:href="#DejaVuSans-55"/>
       <use x="127.246094" xlink:href="#DejaVuSans-46"/>
       <use x="159.033203" xlink:href="#DejaVuSans-53"/>
      </g>
     </g>
    </g>
    <g id="xtick_18">
     <g id="line2d_27">
      <g>
       <use style="stroke:#000000;stroke-width:0.8;" x="795.398397" xlink:href="#m5f8652ccd1" y="294.118125"/>
      </g>
     </g>
     <g id="text_30">
      <!-- 20.0 -->
      <g transform="translate(784.265584 308.716563)scale(0.1 -0.1)">
       <use xlink:href="#DejaVuSans-50"/>
       <use x="63.623047" xlink:href="#DejaVuSans-48"/>
       <use x="127.246094" xlink:href="#DejaVuSans-46"/>
       <use x="159.033203" xlink:href="#DejaVuSans-48"/>
      </g>
     </g>
    </g>
    <g id="text_31">
     <!-- Local time / h -->
     <g transform="translate(623.833523 322.394687)scale(0.1 -0.1)">
      <use xlink:href="#DejaVuSans-76"/>
      <use x="53.962891" xlink:href="#DejaVuSans-111"/>
      <use x="115.144531" xlink:href="#DejaVuSans-99"/>
      <use x="170.125" xlink:href="#DejaVuSans-97"/>
      <use x="231.404297" xlink:href="#DejaVuSans-108"/>
      <use x="259.1875" xlink:href="#DejaVuSans-32"/>
      <use x="290.974609" xlink:href="#DejaVuSans-116"/>
      <use x="330.183594" xlink:href="#DejaVuSans-105"/>
      <use x="357.966797" xlink:href="#DejaVuSans-109"/>
      <use x="455.378906" xlink:href="#DejaVuSans-101"/>
      <use x="516.902344" xlink:href="#DejaVuSans-32"/>
      <use x="548.689453" xlink:href="#DejaVuSans-47"/>
      <use x="582.380859" xlink:href="#DejaVuSans-32"/>
      <use x="614.167969" xlink:href="#DejaVuSans-104"/>
     </g>
    </g>
   </g>
   <g id="matplotlib.axis_4">
    <g id="ytick_10">
     <g id="line2d_28">
      <g>
       <use style="stroke:#000000;stroke-width:0.8;" x="505.528267" xlink:href="#m69606bd994" y="278.12989"/>
      </g>
     </g>
     <g id="text_32">
      <!-- −80 -->
      <g transform="translate(477.42358 281.929108)scale(0.1 -0.1)">
       <use xlink:href="#DejaVuSans-8722"/>
       <use x="83.789062" xlink:href="#DejaVuSans-56"/>
       <use x="147.412109" xlink:href="#DejaVuSans-48"/>
      </g>
     </g>
    </g>
    <g id="ytick_11">
     <g id="line2d_29">
      <g>
       <use style="stroke:#000000;stroke-width:0.8;" x="505.528267" xlink:href="#m69606bd994" y="246.153419"/>
      </g>
     </g>
     <g id="text_33">
      <!-- −60 -->
      <g transform="translate(477.42358 249.952638)scale(0.1 -0.1)">
       <use xlink:href="#DejaVuSans-8722"/>
       <use x="83.789062" xlink:href="#DejaVuSans-54"/>
       <use x="147.412109" xlink:href="#DejaVuSans-48"/>
      </g>
     </g>
    </g>
    <g id="ytick_12">
     <g id="line2d_30">
      <g>
       <use style="stroke:#000000;stroke-width:0.8;" x="505.528267" xlink:href="#m69606bd994" y="214.176949"/>
      </g>
     </g>
     <g id="text_34">
      <!-- −40 -->
      <g transform="translate(477.42358 217.976167)scale(0.1 -0.1)">
       <use xlink:href="#DejaVuSans-8722"/>
       <use x="83.789062" xlink:href="#DejaVuSans-52"/>
       <use x="147.412109" xlink:href="#DejaVuSans-48"/>
      </g>
     </g>
    </g>
    <g id="ytick_13">
     <g id="line2d_31">
      <g>
       <use style="stroke:#000000;stroke-width:0.8;" x="505.528267" xlink:href="#m69606bd994" y="182.200478"/>
      </g>
     </g>
     <g id="text_35">
      <!-- −20 -->
      <g transform="translate(477.42358 185.999697)scale(0.1 -0.1)">
       <use xlink:href="#DejaVuSans-8722"/>
       <use x="83.789062" xlink:href="#DejaVuSans-50"/>
       <use x="147.412109" xlink:href="#DejaVuSans-48"/>
      </g>
     </g>
    </g>
    <g id="ytick_14">
     <g id="line2d_32">
      <g>
       <use style="stroke:#000000;stroke-width:0.8;" x="505.528267" xlink:href="#m69606bd994" y="150.224007"/>
      </g>
     </g>
     <g id="text_36">
      <!-- 0 -->
      <g transform="translate(492.165767 154.023226)scale(0.1 -0.1)">
       <use xlink:href="#DejaVuSans-48"/>
      </g>
     </g>
    </g>
    <g id="ytick_15">
     <g id="line2d_33">
      <g>
       <use style="stroke:#000000;stroke-width:0.8;" x="505.528267" xlink:href="#m69606bd994" y="118.247537"/>
      </g>
     </g>
     <g id="text_37">
      <!-- 20 -->
      <g transform="translate(485.803267 122.046756)scale(0.1 -0.1)">
       <use xlink:href="#DejaVuSans-50"/>
       <use x="63.623047" xlink:href="#DejaVuSans-48"/>
      </g>
     </g>
    </g>
    <g id="ytick_16">
     <g id="line2d_34">
      <g>
       <use style="stroke:#000000;stroke-width:0.8;" x="505.528267" xlink:href="#m69606bd994" y="86.271066"/>
      </g>
     </g>
     <g id="text_38">
      <!-- 40 -->
      <g transform="translate(485.803267 90.070285)scale(0.1 -0.1)">
       <use xlink:href="#DejaVuSans-52"/>
       <use x="63.623047" xlink:href="#DejaVuSans-48"/>
      </g>
     </g>
    </g>
    <g id="ytick_17">
     <g id="line2d_35">
      <g>
       <use style="stroke:#000000;stroke-width:0.8;" x="505.528267" xlink:href="#m69606bd994" y="54.294596"/>
      </g>
     </g>
     <g id="text_39">
      <!-- 60 -->
      <g transform="translate(485.803267 58.093814)scale(0.1 -0.1)">
       <use xlink:href="#DejaVuSans-54"/>
       <use x="63.623047" xlink:href="#DejaVuSans-48"/>
      </g>
     </g>
    </g>
    <g id="ytick_18">
     <g id="line2d_36">
      <g>
       <use style="stroke:#000000;stroke-width:0.8;" x="505.528267" xlink:href="#m69606bd994" y="22.318125"/>
      </g>
     </g>
     <g id="text_40">
      <!-- 80 -->
      <g transform="translate(485.803267 26.117344)scale(0.1 -0.1)">
       <use xlink:href="#DejaVuSans-56"/>
       <use x="63.623047" xlink:href="#DejaVuSans-48"/>
      </g>
     </g>
    </g>
    <g id="text_41">
     <!-- Latitude / deg -->
     <g transform="translate(471.343892 193.084531)rotate(-90)scale(0.1 -0.1)">
      <use xlink:href="#DejaVuSans-76"/>
      <use x="55.712891" xlink:href="#DejaVuSans-97"/>
      <use x="116.992188" xlink:href="#DejaVuSans-116"/>
      <use x="156.201172" xlink:href="#DejaVuSans-105"/>
      <use x="183.984375" xlink:href="#DejaVuSans-116"/>
      <use x="223.193359" xlink:href="#DejaVuSans-117"/>
      <use x="286.572266" xlink:href="#DejaVuSans-100"/>
      <use x="350.048828" xlink:href="#DejaVuSans-101"/>
      <use x="411.572266" xlink:href="#DejaVuSans-32"/>
      <use x="443.359375" xlink:href="#DejaVuSans-47"/>
      <use x="477.050781" xlink:href="#DejaVuSans-32"/>
      <use x="508.837891" xlink:href="#DejaVuSans-100"/>
      <use x="572.314453" xlink:href="#DejaVuSans-101"/>
      <use x="633.837891" xlink:href="#DejaVuSans-103"/>
     </g>
    </g>
   </g>
   <g id="patch_8">
    <path d="M 505.528267 294.118125 
L 505.528267 22.318125 
" style="fill:none;stroke:#000000;stroke-linecap:square;stroke-linejoin:miter;stroke-width:0.8;"/>
   </g>
   <g id="patch_9">
    <path d="M 809.891903 294.118125 
L 809.891903 22.318125 
" style="fill:none;stroke:#000000;stroke-linecap:square;stroke-linejoin:miter;stroke-width:0.8;"/>
   </g>
   <g id="patch_10">
    <path d="M 505.528267 294.118125 
L 809.891903 294.118125 
" style="fill:none;stroke:#000000;stroke-linecap:square;stroke-linejoin:miter;stroke-width:0.8;"/>
   </g>
   <g id="patch_11">
    <path d="M 505.528267 22.318125 
L 809.891903 22.318125 
" style="fill:none;stroke:#000000;stroke-linecap:square;stroke-linejoin:miter;stroke-width:0.8;"/>
   </g>
   <g id="text_42">
    <!-- Meridional wind / m/s -->
    <g transform="translate(593.496023 16.318125)scale(0.12 -0.12)">
     <defs>
      <path d="M 9.8125 72.90625 
L 24.515625 72.90625 
L 43.109375 23.296875 
L 61.8125 72.90625 
L 76.515625 72.90625 
L 76.515625 0 
L 66.890625 0 
L 66.890625 64.015625 
L 48.09375 14.015625 
L 38.1875 14.015625 
L 19.390625 64.015625 
L 19.390625 0 
L 9.8125 0 
z
" id="DejaVuSans-77"/>
      <path d="M 41.109375 46.296875 
Q 39.59375 47.171875 37.8125 47.578125 
Q 36.03125 48 33.890625 48 
Q 26.265625 48 22.1875 43.046875 
Q 18.109375 38.09375 18.109375 28.8125 
L 18.109375 0 
L 9.078125 0 
L 9.078125 54.6875 
L 18.109375 54.6875 
L 18.109375 46.1875 
Q 20.953125 51.171875 25.484375 53.578125 
Q 30.03125 56 36.53125 56 
Q 37.453125 56 38.578125 55.875 
Q 39.703125 55.765625 41.0625 55.515625 
z
" id="DejaVuSans-114"/>
     </defs>
     <use xlink:href="#DejaVuSans-77"/>
     <use x="86.279297" xlink:href="#DejaVuSans-101"/>
     <use x="147.802734" xlink:href="#DejaVuSans-114"/>
     <use x="188.916016" xlink:href="#DejaVuSans-105"/>
     <use x="216.699219" xlink:href="#DejaVuSans-100"/>
     <use x="280.175781" xlink:href="#DejaVuSans-105"/>
     <use x="307.958984" xlink:href="#DejaVuSans-111"/>
     <use x="369.140625" xlink:href="#DejaVuSans-110"/>
     <use x="432.519531" xlink:href="#DejaVuSans-97"/>
     <use x="493.798828" xlink:href="#DejaVuSans-108"/>
     <use x="521.582031" xlink:href="#DejaVuSans-32"/>
     <use x="553.369141" xlink:href="#DejaVuSans-119"/>
     <use x="635.15625" xlink:href="#DejaVuSans-105"/>
     <use x="662.939453" xlink:href="#DejaVuSans-110"/>
     <use x="726.318359" xlink:href="#DejaVuSans-100"/>
     <use x="789.794922" xlink:href="#DejaVuSans-32"/>
     <use x="821.582031" xlink:href="#DejaVuSans-47"/>
     <use x="855.273438" xlink:href="#DejaVuSans-32"/>
     <use x="887.060547" xlink:href="#DejaVuSans-109"/>
     <use x="984.472656" xlink:href="#DejaVuSans-47"/>
     <use x="1018.164062" xlink:href="#DejaVuSans-115"/>
    </g>
   </g>
  </g>
  <g id="axes_3">
   <g id="patch_12">
    <path clip-path="url(#pf548ed735c)" d="M 372.369176 294.118125 
L 372.369176 255.289554 
L 372.369176 61.146696 
L 372.369176 22.318125 
L 385.959176 22.318125 
L 385.959176 61.146696 
L 385.959176 255.289554 
L 385.959176 294.118125 
z
" style="fill:#ffffff;stroke:#ffffff;stroke-linejoin:miter;stroke-width:0.01;"/>
   </g>
   <g id="QuadMesh_1">
    <path clip-path="url(#pf548ed735c)" d="M 372.369176 294.118125 
L 385.959176 294.118125 
L 385.959176 255.289554 
L 372.369176 255.289554 
L 372.369176 294.118125 
" style="fill:#481b6d;"/>
    <path clip-path="url(#pf548ed735c)" d="M 372.369176 255.289554 
L 385.959176 255.289554 
L 385.959176 216.460982 
L 372.369176 216.460982 
L 372.369176 255.289554 
" style="fill:#3f4788;"/>
    <path clip-path="url(#pf548ed735c)" d="M 372.369176 216.460982 
L 385.959176 216.460982 
L 385.959176 177.632411 
L 372.369176 177.632411 
L 372.369176 216.460982 
" style="fill:#2e6e8e;"/>
    <path clip-path="url(#pf548ed735c)" d="M 372.369176 177.632411 
L 385.959176 177.632411 
L 385.959176 138.803839 
L 372.369176 138.803839 
L 372.369176 177.632411 
" style="fill:#21918c;"/>
    <path clip-path="url(#pf548ed735c)" d="M 372.369176 138.803839 
L 385.959176 138.803839 
L 385.959176 99.975268 
L 372.369176 99.975268 
L 372.369176 138.803839 
" style="fill:#2db27d;"/>
    <path clip-path="url(#pf548ed735c)" d="M 372.369176 99.975268 
L 385.959176 99.975268 
L 385.959176 61.146696 
L 372.369176 61.146696 
L 372.369176 99.975268 
" style="fill:#73d056;"/>
    <path clip-path="url(#pf548ed735c)" d="M 372.369176 61.146696 
L 385.959176 61.146696 
L 385.959176 22.318125 
L 372.369176 22.318125 
L 372.369176 61.146696 
" style="fill:#d0e11c;"/>
   </g>
   <g id="matplotlib.axis_5"/>
   <g id="matplotlib.axis_6">
    <g id="ytick_19">
     <g id="line2d_37">
      <defs>
       <path d="M 0 0 
L 3.5 0 
" id="m19f7eb9ab8" style="stroke:#000000;stroke-width:0.8;"/>
      </defs>
      <g>
       <use style="stroke:#000000;stroke-width:0.8;" x="385.959176" xlink:href="#m19f7eb9ab8" y="294.118125"/>
      </g>
     </g>
     <g id="text_43">
      <!-- 0 -->
      <g transform="translate(392.959176 297.917344)scale(0.1 -0.1)">
       <use xlink:href="#DejaVuSans-48"/>
      </g>
     </g>
    </g>
    <g id="ytick_20">
     <g id="line2d_38">
      <g>
       <use style="stroke:#000000;stroke-width:0.8;" x="385.959176" xlink:href="#m19f7eb9ab8" y="255.289554"/>
      </g>
     </g>
     <g id="text_44">
      <!-- 10 -->
      <g transform="translate(392.959176 259.088772)scale(0.1 -0.1)">
       <use xlink:href="#DejaVuSans-49"/>
       <use x="63.623047" xlink:href="#DejaVuSans-48"/>
      </g>
     </g>
    </g>
    <g id="ytick_21">
     <g id="line2d_39">
      <g>
       <use style="stroke:#000000;stroke-width:0.8;" x="385.959176" xlink:href="#m19f7eb9ab8" y="216.460982"/>
      </g>
     </g>
     <g id="text_45">
      <!-- 20 -->
      <g transform="translate(392.959176 220.260201)scale(0.1 -0.1)">
       <use xlink:href="#DejaVuSans-50"/>
       <use x="63.623047" xlink:href="#DejaVuSans-48"/>
      </g>
     </g>
    </g>
    <g id="ytick_22">
     <g id="line2d_40">
      <g>
       <use style="stroke:#000000;stroke-width:0.8;" x="385.959176" xlink:href="#m19f7eb9ab8" y="177.632411"/>
      </g>
     </g>
     <g id="text_46">
      <!-- 30 -->
      <g transform="translate(392.959176 181.431629)scale(0.1 -0.1)">
       <defs>
        <path d="M 40.578125 39.3125 
Q 47.65625 37.796875 51.625 33 
Q 55.609375 28.21875 55.609375 21.1875 
Q 55.609375 10.40625 48.1875 4.484375 
Q 40.765625 -1.421875 27.09375 -1.421875 
Q 22.515625 -1.421875 17.65625 -0.515625 
Q 12.796875 0.390625 7.625 2.203125 
L 7.625 11.71875 
Q 11.71875 9.328125 16.59375 8.109375 
Q 21.484375 6.890625 26.8125 6.890625 
Q 36.078125 6.890625 40.9375 10.546875 
Q 45.796875 14.203125 45.796875 21.1875 
Q 45.796875 27.640625 41.28125 31.265625 
Q 36.765625 34.90625 28.71875 34.90625 
L 20.21875 34.90625 
L 20.21875 43.015625 
L 29.109375 43.015625 
Q 36.375 43.015625 40.234375 45.921875 
Q 44.09375 48.828125 44.09375 54.296875 
Q 44.09375 59.90625 40.109375 62.90625 
Q 36.140625 65.921875 28.71875 65.921875 
Q 24.65625 65.921875 20.015625 65.03125 
Q 15.375 64.15625 9.8125 62.3125 
L 9.8125 71.09375 
Q 15.4375 72.65625 20.34375 73.4375 
Q 25.25 74.21875 29.59375 74.21875 
Q 40.828125 74.21875 47.359375 69.109375 
Q 53.90625 64.015625 53.90625 55.328125 
Q 53.90625 49.265625 50.4375 45.09375 
Q 46.96875 40.921875 40.578125 39.3125 
z
" id="DejaVuSans-51"/>
       </defs>
       <use xlink:href="#DejaVuSans-51"/>
       <use x="63.623047" xlink:href="#DejaVuSans-48"/>
      </g>
     </g>
    </g>
    <g id="ytick_23">
     <g id="line2d_41">
      <g>
       <use style="stroke:#000000;stroke-width:0.8;" x="385.959176" xlink:href="#m19f7eb9ab8" y="138.803839"/>
      </g>
     </g>
     <g id="text_47">
      <!-- 40 -->
      <g transform="translate(392.959176 142.603058)scale(0.1 -0.1)">
       <use xlink:href="#DejaVuSans-52"/>
       <use x="63.623047" xlink:href="#DejaVuSans-48"/>
      </g>
     </g>
    </g>
    <g id="ytick_24">
     <g id="line2d_42">
      <g>
       <use style="stroke:#000000;stroke-width:0.8;" x="385.959176" xlink:href="#m19f7eb9ab8" y="99.975268"/>
      </g>
     </g>
     <g id="text_48">
      <!-- 50 -->
      <g transform="translate(392.959176 103.774487)scale(0.1 -0.1)">
       <use xlink:href="#DejaVuSans-53"/>
       <use x="63.623047" xlink:href="#DejaVuSans-48"/>
      </g>
     </g>
    </g>
    <g id="ytick_25">
     <g id="line2d_43">
      <g>
       <use style="stroke:#000000;stroke-width:0.8;" x="385.959176" xlink:href="#m19f7eb9ab8" y="61.146696"/>
      </g>
     </g>
     <g id="text_49">
      <!-- 60 -->
      <g transform="translate(392.959176 64.945915)scale(0.1 -0.1)">
       <use xlink:href="#DejaVuSans-54"/>
       <use x="63.623047" xlink:href="#DejaVuSans-48"/>
      </g>
     </g>
    </g>
    <g id="ytick_26">
     <g id="line2d_44">
      <g>
       <use style="stroke:#000000;stroke-width:0.8;" x="385.959176" xlink:href="#m19f7eb9ab8" y="22.318125"/>
      </g>
     </g>
     <g id="text_50">
      <!-- 70 -->
      <g transform="translate(392.959176 26.117344)scale(0.1 -0.1)">
       <use xlink:href="#DejaVuSans-55"/>
       <use x="63.623047" xlink:href="#DejaVuSans-48"/>
      </g>
     </g>
    </g>
   </g>
   <g id="patch_13">
    <path d="M 372.369176 294.118125 
L 372.369176 255.289554 
L 372.369176 61.146696 
L 372.369176 22.318125 
L 385.959176 22.318125 
L 385.959176 61.146696 
L 385.959176 255.289554 
L 385.959176 294.118125 
z
" style="fill:none;stroke:#000000;stroke-linejoin:miter;stroke-width:0.8;"/>
   </g>
  </g>
  <g id="axes_4">
   <g id="patch_14">
    <path clip-path="url(#pe4fc35c02f)" d="M 828.914631 294.118125 
L 828.914631 255.289554 
L 828.914631 61.146696 
L 828.914631 22.318125 
L 842.504631 22.318125 
L 842.504631 61.146696 
L 842.504631 255.289554 
L 842.504631 294.118125 
z
" style="fill:#ffffff;stroke:#ffffff;stroke-linejoin:miter;stroke-width:0.01;"/>
   </g>
   <g id="QuadMesh_2">
    <path clip-path="url(#pe4fc35c02f)" d="M 828.914631 294.118125 
L 842.504631 294.118125 
L 842.504631 255.289554 
L 828.914631 255.289554 
L 828.914631 294.118125 
" style="fill:#481b6d;"/>
    <path clip-path="url(#pe4fc35c02f)" d="M 828.914631 255.289554 
L 842.504631 255.289554 
L 842.504631 216.460982 
L 828.914631 216.460982 
L 828.914631 255.289554 
" style="fill:#3f4788;"/>
    <path clip-path="url(#pe4fc35c02f)" d="M 828.914631 216.460982 
L 842.504631 216.460982 
L 842.504631 177.632411 
L 828.914631 177.632411 
L 828.914631 216.460982 
" style="fill:#2e6e8e;"/>
    <path clip-path="url(#pe4fc35c02f)" d="M 828.914631 177.632411 
L 842.504631 177.632411 
L 842.504631 138.803839 
L 828.914631 138.803839 
L 828.914631 177.632411 
" style="fill:#21918c;"/>
    <path clip-path="url(#pe4fc35c02f)" d="M 828.914631 138.803839 
L 842.504631 138.803839 
L 842.504631 99.975268 
L 828.914631 99.975268 
L 828.914631 138.803839 
" style="fill:#2db27d;"/>
    <path clip-path="url(#pe4fc35c02f)" d="M 828.914631 99.975268 
L 842.504631 99.975268 
L 842.504631 61.146696 
L 828.914631 61.146696 
L 828.914631 99.975268 
" style="fill:#73d056;"/>
    <path clip-path="url(#pe4fc35c02f)" d="M 828.914631 61.146696 
L 842.504631 61.146696 
L 842.504631 22.318125 
L 828.914631 22.318125 
L 828.914631 61.146696 
" style="fill:#d0e11c;"/>
   </g>
   <g id="matplotlib.axis_7"/>
   <g id="matplotlib.axis_8">
    <g id="ytick_27">
     <g id="line2d_45">
      <g>
       <use style="stroke:#000000;stroke-width:0.8;" x="842.504631" xlink:href="#m19f7eb9ab8" y="294.118125"/>
      </g>
     </g>
     <g id="text_51">
      <!-- 0 -->
      <g transform="translate(849.504631 297.917344)scale(0.1 -0.1)">
       <use xlink:href="#DejaVuSans-48"/>
      </g>
     </g>
    </g>
    <g id="ytick_28">
     <g id="line2d_46">
      <g>
       <use style="stroke:#000000;stroke-width:0.8;" x="842.504631" xlink:href="#m19f7eb9ab8" y="255.289554"/>
      </g>
     </g>
     <g id="text_52">
      <!-- 4 -->
      <g transform="translate(849.504631 259.088772)scale(0.1 -0.1)">
       <use xlink:href="#DejaVuSans-52"/>
      </g>
     </g>
    </g>
    <g id="ytick_29">
     <g id="line2d_47">
      <g>
       <use style="stroke:#000000;stroke-width:0.8;" x="842.504631" xlink:href="#m19f7eb9ab8" y="216.460982"/>
      </g>
     </g>
     <g id="text_53">
      <!-- 8 -->
      <g transform="translate(849.504631 220.260201)scale(0.1 -0.1)">
       <use xlink:href="#DejaVuSans-56"/>
      </g>
     </g>
    </g>
    <g id="ytick_30">
     <g id="line2d_48">
      <g>
       <use style="stroke:#000000;stroke-width:0.8;" x="842.504631" xlink:href="#m19f7eb9ab8" y="177.632411"/>
      </g>
     </g>
     <g id="text_54">
      <!-- 12 -->
      <g transform="translate(849.504631 181.431629)scale(0.1 -0.1)">
       <use xlink:href="#DejaVuSans-49"/>
       <use x="63.623047" xlink:href="#DejaVuSans-50"/>
      </g>
     </g>
    </g>
    <g id="ytick_31">
     <g id="line2d_49">
      <g>
       <use style="stroke:#000000;stroke-width:0.8;" x="842.504631" xlink:href="#m19f7eb9ab8" y="138.803839"/>
      </g>
     </g>
     <g id="text_55">
      <!-- 16 -->
      <g transform="translate(849.504631 142.603058)scale(0.1 -0.1)">
       <use xlink:href="#DejaVuSans-49"/>
       <use x="63.623047" xlink:href="#DejaVuSans-54"/>
      </g>
     </g>
    </g>
    <g id="ytick_32">
     <g id="line2d_50">
      <g>
       <use style="stroke:#000000;stroke-width:0.8;" x="842.504631" xlink:href="#m19f7eb9ab8" y="99.975268"/>
      </g>
     </g>
     <g id="text_56">
      <!-- 20 -->
      <g transform="translate(849.504631 103.774487)scale(0.1 -0.1)">
       <use xlink:href="#DejaVuSans-50"/>
       <use x="63.623047" xlink:href="#DejaVuSans-48"/>
      </g>
     </g>
    </g>
    <g id="ytick_33">
     <g id="line2d_51">
      <g>
       <use style="stroke:#000000;stroke-width:0.8;" x="842.504631" xlink:href="#m19f7eb9ab8" y="61.146696"/>
      </g>
     </g>
     <g id="text_57">
      <!-- 24 -->
      <g transform="translate(849.504631 64.945915)scale(0.1 -0.1)">
       <use xlink:href="#DejaVuSans-50"/>
       <use x="63.623047" xlink:href="#DejaVuSans-52"/>
      </g>
     </g>
    </g>
    <g id="ytick_34">
     <g id="line2d_52">
      <g>
       <use style="stroke:#000000;stroke-width:0.8;" x="842.504631" xlink:href="#m19f7eb9ab8" y="22.318125"/>
      </g>
     </g>
     <g id="text_58">
      <!-- 28 -->
      <g transform="translate(849.504631 26.117344)scale(0.1 -0.1)">
       <use xlink:href="#DejaVuSans-50"/>
       <use x="63.623047" xlink:href="#DejaVuSans-56"/>
      </g>
     </g>
    </g>
   </g>
   <g id="patch_15">
    <path d="M 828.914631 294.118125 
L 828.914631 255.289554 
L 828.914631 61.146696 
L 828.914631 22.318125 
L 842.504631 22.318125 
L 842.504631 61.146696 
L 842.504631 255.289554 
L 842.504631 294.118125 
z
" style="fill:none;stroke:#000000;stroke-linejoin:miter;stroke-width:0.8;"/>
   </g>
  </g>
 </g>
 <defs>
  <clipPath id="p1e115ee4d0">
   <rect height="271.8" width="304.363636" x="48.982813" y="22.318125"/>
  </clipPath>
  <clipPath id="pfd1b2ec9b9">
   <rect height="271.8" width="304.363636" x="505.528267" y="22.318125"/>
  </clipPath>
  <clipPath id="pf548ed735c">
   <rect height="271.8" width="13.59" x="372.369176" y="22.318125"/>
  </clipPath>
  <clipPath id="pe4fc35c02f">
   <rect height="271.8" width="13.59" x="828.914631" y="22.318125"/>
  </clipPath>
 </defs>
</svg>
